<svg xmlns="http://www.w3.org/2000/svg" xmlns:xlink="http://www.w3.org/1999/xlink" width="500" zoomAndPan="magnify" viewBox="0 0 375 131.249995" height="175" preserveAspectRatio="xMidYMid meet" version="1.0"><defs><g/><clipPath id="351a5f2c5e"><path d="M 14.117188 37.152344 L 56 37.152344 L 56 105.011719 L 14.117188 105.011719 Z M 14.117188 37.152344 " clip-rule="nonzero"/></clipPath><clipPath id="ef4b00a62e"><path d="M 14.117188 37.152344 L 29 37.152344 L 29 57 L 14.117188 57 Z M 14.117188 37.152344 " clip-rule="nonzero"/></clipPath><clipPath id="b6926db4dc"><path d="M 22 37.152344 L 42 37.152344 L 42 67 L 22 67 Z M 22 37.152344 " clip-rule="nonzero"/></clipPath><clipPath id="d52b0e092d"><path d="M 14.117188 67 L 25 67 L 25 82 L 14.117188 82 Z M 14.117188 67 " clip-rule="nonzero"/></clipPath><clipPath id="67b2776c4e"><path d="M 27 37.152344 L 70 37.152344 L 70 105 L 27 105 Z M 27 37.152344 " clip-rule="nonzero"/></clipPath><clipPath id="af548e2ff3"><path d="M 55 85 L 70 85 L 70 105.011719 L 55 105.011719 Z M 55 85 " clip-rule="nonzero"/></clipPath><clipPath id="b7b6497b3d"><path d="M 68 37.152344 L 111 37.152344 L 111 105.011719 L 68 105.011719 Z M 68 37.152344 " clip-rule="nonzero"/></clipPath><clipPath id="e8e49240d5"><path d="M 68 37.152344 L 83 37.152344 L 83 57 L 68 57 Z M 68 37.152344 " clip-rule="nonzero"/></clipPath><clipPath id="f08f5c5494"><path d="M 76 37.152344 L 97 37.152344 L 97 67 L 76 67 Z M 76 37.152344 " clip-rule="nonzero"/></clipPath><clipPath id="3d9e243780"><path d="M 82 37.152344 L 123.738281 37.152344 L 123.738281 105 L 82 105 Z M 82 37.152344 " clip-rule="nonzero"/></clipPath><clipPath id="a3b3859138"><path d="M 109 85 L 123.738281 85 L 123.738281 105.011719 L 109 105.011719 Z M 109 85 " clip-rule="nonzero"/></clipPath><clipPath id="9421f9145b"><path d="M 113 61 L 123.738281 61 L 123.738281 75 L 113 75 Z M 113 61 " clip-rule="nonzero"/></clipPath></defs><g clip-path="url(#351a5f2c5e)"><path fill="#049fc7" d="M 55.433594 41.765625 L 19.730469 103.515625 C 18.910156 104.9375 17.058594 105.4375 15.628906 104.617188 C 14.199219 103.789062 13.703125 101.949219 14.53125 100.515625 L 50.234375 38.769531 C 51.058594 37.339844 52.902344 36.847656 54.335938 37.671875 C 55.765625 38.496094 56.257812 40.335938 55.433594 41.765625 Z M 55.433594 41.765625 " fill-opacity="1" fill-rule="evenodd"/></g><g clip-path="url(#ef4b00a62e)"><path fill="#44892e" d="M 22.554688 38.648438 C 23.382812 37.21875 25.226562 36.726562 26.660156 37.546875 C 28.089844 38.371094 28.582031 40.214844 27.757812 41.644531 L 19.820312 55.371094 C 18.996094 56.796875 17.144531 57.292969 15.71875 56.46875 C 14.289062 55.644531 13.792969 53.800781 14.617188 52.371094 Z M 22.554688 38.648438 " fill-opacity="1" fill-rule="evenodd"/></g><g clip-path="url(#b6926db4dc)"><path fill="#5eb443" d="M 28.074219 65.09375 L 41.496094 41.882812 C 42.320312 40.453125 41.824219 38.609375 40.394531 37.785156 C 38.964844 36.960938 37.117188 37.453125 36.292969 38.882812 L 22.871094 62.097656 C 22.046875 63.523438 22.539062 65.367188 23.96875 66.191406 C 25.398438 67.019531 27.246094 66.523438 28.070312 65.09375 Z M 28.074219 65.09375 " fill-opacity="1" fill-rule="evenodd"/></g><g clip-path="url(#d52b0e092d)"><path fill="#5cc6d0" d="M 24.269531 71.675781 C 25.09375 70.246094 24.601562 68.402344 23.167969 67.578125 C 21.742188 66.753906 19.890625 67.246094 19.066406 68.679688 L 14.511719 76.550781 C 13.6875 77.976562 14.179688 79.820312 15.613281 80.644531 C 17.042969 81.472656 18.886719 80.976562 19.714844 79.550781 L 24.265625 71.675781 Z M 24.269531 71.675781 " fill-opacity="1" fill-rule="evenodd"/></g><g clip-path="url(#67b2776c4e)"><path fill="#ff8f10" d="M 27.964844 100.398438 L 63.664062 38.648438 C 64.488281 37.226562 66.335938 36.726562 67.765625 37.546875 C 69.199219 38.375 69.691406 40.214844 68.863281 41.648438 L 33.164062 103.394531 C 32.339844 104.824219 30.492188 105.316406 29.0625 104.492188 C 27.632812 103.671875 27.140625 101.828125 27.964844 100.398438 Z M 27.964844 100.398438 " fill-opacity="1" fill-rule="evenodd"/></g><g clip-path="url(#af548e2ff3)"><path fill="#bd0353" d="M 60.835938 103.515625 C 60.011719 104.945312 58.164062 105.4375 56.734375 104.617188 C 55.304688 103.792969 54.8125 101.949219 55.636719 100.519531 L 63.574219 86.792969 C 64.398438 85.367188 66.246094 84.871094 67.675781 85.695312 C 69.105469 86.519531 69.601562 88.363281 68.777344 89.792969 L 60.839844 103.515625 Z M 60.835938 103.515625 " fill-opacity="1" fill-rule="evenodd"/></g><path fill="#f60c74" d="M 55.324219 77.070312 L 41.902344 100.28125 C 41.078125 101.710938 41.570312 103.554688 43.003906 104.378906 C 44.433594 105.203125 46.277344 104.710938 47.105469 103.28125 L 60.523438 80.066406 C 61.351562 78.640625 60.859375 76.796875 59.425781 75.972656 C 57.996094 75.144531 56.152344 75.640625 55.324219 77.070312 Z M 55.324219 77.070312 " fill-opacity="1" fill-rule="evenodd"/><path fill="#ed3237" d="M 59.125 70.488281 C 58.300781 71.917969 58.792969 73.761719 60.226562 74.585938 C 61.652344 75.410156 63.503906 74.917969 64.328125 73.484375 L 68.878906 65.613281 C 69.707031 64.1875 69.210938 62.34375 67.78125 61.519531 C 66.351562 60.691406 64.503906 61.1875 63.679688 62.613281 L 59.128906 70.488281 Z M 59.125 70.488281 " fill-opacity="1" fill-rule="evenodd"/><g clip-path="url(#b7b6497b3d)"><path fill="#049fc7" d="M 109.894531 41.765625 L 74.191406 103.515625 C 73.371094 104.9375 71.523438 105.4375 70.089844 104.617188 C 68.660156 103.789062 68.164062 101.949219 68.992188 100.515625 L 104.695312 38.769531 C 105.519531 37.339844 107.367188 36.847656 108.796875 37.671875 C 110.226562 38.496094 110.71875 40.335938 109.894531 41.765625 Z M 109.894531 41.765625 " fill-opacity="1" fill-rule="evenodd"/></g><g clip-path="url(#e8e49240d5)"><path fill="#44892e" d="M 77.019531 38.648438 C 77.84375 37.21875 79.6875 36.726562 81.121094 37.546875 C 82.550781 38.371094 83.042969 40.214844 82.21875 41.644531 L 74.28125 55.371094 C 73.457031 56.796875 71.609375 57.292969 70.179688 56.46875 C 68.75 55.644531 68.253906 53.800781 69.078125 52.371094 L 77.015625 38.648438 Z M 77.019531 38.648438 " fill-opacity="1" fill-rule="evenodd"/></g><g clip-path="url(#f08f5c5494)"><path fill="#5eb443" d="M 82.535156 65.09375 L 95.957031 41.882812 C 96.78125 40.453125 96.285156 38.609375 94.855469 37.785156 C 93.425781 36.960938 91.578125 37.453125 90.753906 38.882812 L 77.332031 62.097656 C 76.507812 63.523438 77 65.367188 78.429688 66.191406 C 79.863281 67.019531 81.707031 66.523438 82.53125 65.09375 Z M 82.535156 65.09375 " fill-opacity="1" fill-rule="evenodd"/></g><path fill="#5cc6d0" d="M 78.730469 71.675781 C 79.554688 70.246094 79.0625 68.402344 77.628906 67.578125 C 76.203125 66.753906 74.351562 67.246094 73.527344 68.679688 L 68.976562 76.550781 C 68.148438 77.976562 68.644531 79.820312 70.074219 80.644531 C 71.503906 81.472656 73.351562 80.976562 74.175781 79.550781 L 78.726562 71.675781 Z M 78.730469 71.675781 " fill-opacity="1" fill-rule="evenodd"/><g clip-path="url(#3d9e243780)"><path fill="#ff8f10" d="M 82.425781 100.398438 L 118.128906 38.648438 C 118.949219 37.226562 120.796875 36.726562 122.230469 37.546875 C 123.660156 38.375 124.15625 40.214844 123.328125 41.648438 L 87.625 103.394531 C 86.800781 104.824219 84.953125 105.316406 83.523438 104.492188 C 82.09375 103.671875 81.601562 101.828125 82.425781 100.398438 Z M 82.425781 100.398438 " fill-opacity="1" fill-rule="evenodd"/></g><g clip-path="url(#a3b3859138)"><path fill="#bd0353" d="M 115.296875 103.515625 C 114.472656 104.945312 112.628906 105.4375 111.195312 104.617188 C 109.765625 103.792969 109.273438 101.949219 110.097656 100.519531 L 118.035156 86.792969 C 118.859375 85.367188 120.710938 84.871094 122.136719 85.695312 C 123.566406 86.519531 124.0625 88.363281 123.238281 89.792969 L 115.300781 103.515625 Z M 115.296875 103.515625 " fill-opacity="1" fill-rule="evenodd"/></g><path fill="#f60c74" d="M 109.785156 77.070312 L 96.363281 100.28125 C 95.539062 101.710938 96.035156 103.554688 97.464844 104.378906 C 98.894531 105.203125 100.742188 104.710938 101.566406 103.28125 L 114.988281 80.066406 C 115.8125 78.640625 115.320312 76.796875 113.890625 75.972656 C 112.457031 75.144531 110.613281 75.640625 109.785156 77.070312 Z M 109.785156 77.070312 " fill-opacity="1" fill-rule="evenodd"/><g clip-path="url(#9421f9145b)"><path fill="#ed3237" d="M 113.585938 70.488281 C 112.761719 71.917969 113.253906 73.761719 114.6875 74.585938 C 116.113281 75.410156 117.964844 74.917969 118.789062 73.484375 L 123.339844 65.613281 C 124.167969 64.1875 123.675781 62.34375 122.242188 61.519531 C 120.8125 60.691406 118.96875 61.1875 118.140625 62.613281 L 113.589844 70.488281 Z M 113.585938 70.488281 " fill-opacity="1" fill-rule="evenodd"/></g><g fill="#d9d9d9" fill-opacity="1"><g transform="translate(141.172557, 65.159298)"><g><path d="M 11.765625 0.34375 C 8.597656 0.34375 6.097656 -0.394531 4.265625 -1.875 C 2.441406 -3.351562 1.53125 -5.34375 1.53125 -7.84375 C 1.53125 -8.101562 1.554688 -8.523438 1.609375 -9.109375 L 1.703125 -9.671875 C 1.734375 -9.910156 1.828125 -10.101562 1.984375 -10.25 C 2.140625 -10.394531 2.335938 -10.46875 2.578125 -10.46875 L 7.9375 -10.46875 C 8.164062 -10.46875 8.34375 -10.414062 8.46875 -10.3125 C 8.601562 -10.207031 8.65625 -10.082031 8.625 -9.9375 L 8.546875 -9.421875 C 8.429688 -8.484375 8.785156 -7.648438 9.609375 -6.921875 C 10.441406 -6.203125 11.582031 -5.84375 13.03125 -5.84375 C 14.375 -5.84375 15.367188 -6.15625 16.015625 -6.78125 C 16.671875 -7.40625 17 -8.09375 17 -8.84375 C 17 -9.570312 16.6875 -10.125 16.0625 -10.5 C 15.4375 -10.882812 14.3125 -11.363281 12.6875 -11.9375 C 12.539062 -12 12.382812 -12.054688 12.21875 -12.109375 C 12.0625 -12.171875 11.910156 -12.234375 11.765625 -12.296875 C 10.171875 -12.878906 8.769531 -13.488281 7.5625 -14.125 C 6.351562 -14.757812 5.328125 -15.628906 4.484375 -16.734375 C 3.640625 -17.835938 3.21875 -19.191406 3.21875 -20.796875 C 3.21875 -21.023438 3.25 -21.398438 3.3125 -21.921875 C 3.539062 -23.722656 4.191406 -25.300781 5.265625 -26.65625 C 6.347656 -28.007812 7.742188 -29.046875 9.453125 -29.765625 C 11.171875 -30.492188 13.0625 -30.859375 15.125 -30.859375 C 17.132812 -30.859375 18.914062 -30.507812 20.46875 -29.8125 C 22.019531 -29.113281 23.234375 -28.117188 24.109375 -26.828125 C 24.984375 -25.535156 25.421875 -24.046875 25.421875 -22.359375 C 25.421875 -22.097656 25.390625 -21.675781 25.328125 -21.09375 L 25.28125 -20.75 C 25.25 -20.519531 25.160156 -20.332031 25.015625 -20.1875 C 24.878906 -20.039062 24.691406 -19.96875 24.453125 -19.96875 L 19.046875 -19.96875 C 18.816406 -19.96875 18.632812 -20.007812 18.5 -20.09375 C 18.375 -20.1875 18.328125 -20.289062 18.359375 -20.40625 L 18.390625 -20.796875 L 18.4375 -21.234375 C 18.4375 -22.160156 18.050781 -22.960938 17.28125 -23.640625 C 16.507812 -24.328125 15.441406 -24.671875 14.078125 -24.671875 C 12.890625 -24.671875 11.945312 -24.398438 11.25 -23.859375 C 10.550781 -23.328125 10.203125 -22.582031 10.203125 -21.625 C 10.203125 -21.101562 10.390625 -20.648438 10.765625 -20.265625 C 11.140625 -19.890625 11.703125 -19.535156 12.453125 -19.203125 C 13.210938 -18.867188 14.378906 -18.410156 15.953125 -17.828125 C 17.703125 -17.222656 19.078125 -16.675781 20.078125 -16.1875 C 21.078125 -15.707031 22.003906 -14.945312 22.859375 -13.90625 C 23.722656 -12.863281 24.15625 -11.523438 24.15625 -9.890625 C 24.15625 -9.691406 24.125 -9.332031 24.0625 -8.8125 C 23.832031 -6.976562 23.164062 -5.367188 22.0625 -3.984375 C 20.957031 -2.609375 19.515625 -1.539062 17.734375 -0.78125 C 15.960938 -0.03125 13.972656 0.34375 11.765625 0.34375 Z M 11.765625 0.34375 "/></g></g></g><g fill="#d9d9d9" fill-opacity="1"><g transform="translate(166.321154, 65.159298)"><g><path d="M 10.890625 0.34375 C 8.367188 0.34375 6.304688 -0.351562 4.703125 -1.75 C 3.109375 -3.144531 2.148438 -5.03125 1.828125 -7.40625 C 1.742188 -8.019531 1.703125 -8.644531 1.703125 -9.28125 C 1.703125 -9.945312 1.742188 -10.628906 1.828125 -11.328125 C 2.003906 -12.722656 2.351562 -14.132812 2.875 -15.5625 C 3.832031 -17.851562 5.269531 -19.644531 7.1875 -20.9375 C 9.101562 -22.238281 11.3125 -22.890625 13.8125 -22.890625 C 16.289062 -22.890625 18.3125 -22.238281 19.875 -20.9375 C 21.445312 -19.644531 22.421875 -17.867188 22.796875 -15.609375 C 22.910156 -14.941406 22.96875 -14.15625 22.96875 -13.25 C 22.96875 -12.4375 22.941406 -11.828125 22.890625 -11.421875 C 22.710938 -9.960938 22.390625 -8.679688 21.921875 -7.578125 C 21.054688 -5.140625 19.648438 -3.207031 17.703125 -1.78125 C 15.753906 -0.363281 13.484375 0.34375 10.890625 0.34375 Z M 11.6875 -5.84375 C 12.5 -5.84375 13.207031 -6.109375 13.8125 -6.640625 C 14.425781 -7.179688 14.90625 -7.914062 15.25 -8.84375 C 15.488281 -9.488281 15.679688 -10.316406 15.828125 -11.328125 C 15.878906 -11.972656 15.90625 -12.425781 15.90625 -12.6875 C 15.90625 -13.9375 15.664062 -14.914062 15.1875 -15.625 C 14.707031 -16.34375 13.972656 -16.703125 12.984375 -16.703125 C 11.328125 -16.703125 10.164062 -15.753906 9.5 -13.859375 C 9.1875 -13.128906 8.984375 -12.285156 8.890625 -11.328125 C 8.804688 -10.773438 8.765625 -10.238281 8.765625 -9.71875 C 8.765625 -8.5625 9.007812 -7.625 9.5 -6.90625 C 10 -6.195312 10.726562 -5.84375 11.6875 -5.84375 Z M 11.6875 -5.84375 "/></g></g></g><g fill="#d9d9d9" fill-opacity="1"><g transform="translate(189.900696, 65.159298)"><g><path d="M 16.265625 -21.75 C 16.285156 -21.988281 16.367188 -22.175781 16.515625 -22.3125 C 16.660156 -22.457031 16.851562 -22.53125 17.09375 -22.53125 L 22.578125 -22.53125 C 22.816406 -22.53125 23 -22.457031 23.125 -22.3125 C 23.257812 -22.175781 23.3125 -21.988281 23.28125 -21.75 L 20.703125 -0.78125 C 20.617188 -0.257812 20.328125 0 19.828125 0 L 14.34375 0 C 14.113281 0 13.9375 -0.0703125 13.8125 -0.21875 C 13.695312 -0.363281 13.65625 -0.550781 13.6875 -0.78125 L 13.8125 -1.875 C 13.8125 -2.019531 13.78125 -2.101562 13.71875 -2.125 C 13.664062 -2.15625 13.582031 -2.113281 13.46875 -2 C 12.132812 -0.4375 10.289062 0.34375 7.9375 0.34375 C 6.019531 0.34375 4.492188 -0.210938 3.359375 -1.328125 C 2.222656 -2.453125 1.65625 -4.046875 1.65625 -6.109375 C 1.65625 -6.742188 1.6875 -7.234375 1.75 -7.578125 L 3.484375 -21.75 C 3.515625 -21.988281 3.601562 -22.175781 3.75 -22.3125 C 3.894531 -22.457031 4.082031 -22.53125 4.3125 -22.53125 L 9.8125 -22.53125 C 10.039062 -22.53125 10.21875 -22.457031 10.34375 -22.3125 C 10.476562 -22.175781 10.53125 -21.988281 10.5 -21.75 L 8.9375 -9.234375 L 8.890625 -8.671875 C 8.890625 -7.804688 9.109375 -7.125 9.546875 -6.625 C 9.984375 -6.132812 10.59375 -5.890625 11.375 -5.890625 C 12.164062 -5.890625 12.847656 -6.132812 13.421875 -6.625 C 14.003906 -7.125 14.410156 -7.78125 14.640625 -8.59375 Z M 16.265625 -21.75 "/></g></g></g><g fill="#d9d9d9" fill-opacity="1"><g transform="translate(213.131561, 65.159298)"><g><path d="M 16.09375 -22.890625 C 18.09375 -22.890625 19.6875 -22.300781 20.875 -21.125 C 22.070312 -19.945312 22.671875 -18.3125 22.671875 -16.21875 C 22.671875 -15.957031 22.640625 -15.503906 22.578125 -14.859375 L 20.84375 -0.78125 C 20.8125 -0.550781 20.722656 -0.363281 20.578125 -0.21875 C 20.429688 -0.0703125 20.242188 0 20.015625 0 L 14.515625 0 C 14.285156 0 14.101562 -0.0703125 13.96875 -0.21875 C 13.84375 -0.363281 13.789062 -0.550781 13.8125 -0.78125 L 15.390625 -13.296875 L 15.4375 -13.859375 C 15.4375 -14.703125 15.207031 -15.382812 14.75 -15.90625 C 14.300781 -16.4375 13.6875 -16.703125 12.90625 -16.703125 C 12.0625 -16.703125 11.328125 -16.390625 10.703125 -15.765625 C 10.078125 -15.140625 9.707031 -14.316406 9.59375 -13.296875 L 8.0625 -0.78125 C 7.976562 -0.257812 7.6875 0 7.1875 0 L 1.703125 0 C 1.460938 0 1.285156 -0.0703125 1.171875 -0.21875 C 1.054688 -0.363281 1.015625 -0.550781 1.046875 -0.78125 L 3.625 -21.75 C 3.644531 -21.988281 3.726562 -22.175781 3.875 -22.3125 C 4.019531 -22.457031 4.210938 -22.53125 4.453125 -22.53125 L 9.9375 -22.53125 C 10.164062 -22.53125 10.347656 -22.457031 10.484375 -22.3125 C 10.617188 -22.175781 10.671875 -21.988281 10.640625 -21.75 L 10.46875 -20.53125 C 10.4375 -20.382812 10.457031 -20.296875 10.53125 -20.265625 C 10.601562 -20.242188 10.679688 -20.289062 10.765625 -20.40625 C 12.078125 -22.0625 13.851562 -22.890625 16.09375 -22.890625 Z M 16.09375 -22.890625 "/></g></g></g><g fill="#d9d9d9" fill-opacity="1"><g transform="translate(236.406005, 65.159298)"><g><path d="M 17.703125 -29.734375 C 17.734375 -29.960938 17.816406 -30.148438 17.953125 -30.296875 C 18.097656 -30.441406 18.289062 -30.515625 18.53125 -30.515625 L 24.0625 -30.515625 C 24.289062 -30.515625 24.460938 -30.441406 24.578125 -30.296875 C 24.703125 -30.148438 24.75 -29.960938 24.71875 -29.734375 L 21.140625 -0.78125 C 21.109375 -0.550781 21.019531 -0.363281 20.875 -0.21875 C 20.726562 -0.0703125 20.539062 0 20.3125 0 L 14.828125 0 C 14.585938 0 14.398438 -0.0703125 14.265625 -0.21875 C 14.140625 -0.363281 14.09375 -0.550781 14.125 -0.78125 L 14.25 -1.828125 C 14.28125 -1.972656 14.257812 -2.0625 14.1875 -2.09375 C 14.113281 -2.125 14.035156 -2.082031 13.953125 -1.96875 C 12.640625 -0.425781 10.9375 0.34375 8.84375 0.34375 C 7.019531 0.34375 5.398438 -0.28125 3.984375 -1.53125 C 2.578125 -2.78125 1.710938 -4.390625 1.390625 -6.359375 C 1.242188 -7.296875 1.171875 -8.125 1.171875 -8.84375 C 1.171875 -9.425781 1.226562 -10.269531 1.34375 -11.375 C 1.582031 -13.351562 2.109375 -15.1875 2.921875 -16.875 C 3.796875 -18.675781 5.023438 -20.132812 6.609375 -21.25 C 8.191406 -22.375 9.882812 -22.9375 11.6875 -22.9375 C 13.863281 -22.9375 15.390625 -22.265625 16.265625 -20.921875 C 16.316406 -20.804688 16.382812 -20.765625 16.46875 -20.796875 C 16.5625 -20.828125 16.609375 -20.914062 16.609375 -21.0625 Z M 14.21875 -7.671875 C 14.820312 -8.660156 15.210938 -9.851562 15.390625 -11.25 C 15.441406 -11.945312 15.46875 -12.425781 15.46875 -12.6875 C 15.46875 -13.644531 15.335938 -14.441406 15.078125 -15.078125 C 14.617188 -16.066406 13.863281 -16.5625 12.8125 -16.5625 C 11.707031 -16.5625 10.804688 -16.054688 10.109375 -15.046875 C 9.503906 -14.140625 9.082031 -12.875 8.84375 -11.25 C 8.789062 -10.664062 8.765625 -10.257812 8.765625 -10.03125 C 8.765625 -9.09375 8.894531 -8.289062 9.15625 -7.625 C 9.5625 -6.550781 10.347656 -6.015625 11.515625 -6.015625 C 12.617188 -6.015625 13.519531 -6.566406 14.21875 -7.671875 Z M 14.21875 -7.671875 "/></g></g></g><g fill="#d9d9d9" fill-opacity="1"><g transform="translate(260.159888, 65.159298)"><g><path d="M 7.890625 0 C 7.421875 0 7.175781 -0.21875 7.15625 -0.65625 L 2.96875 -29.640625 L 2.96875 -29.78125 C 2.96875 -30.269531 3.210938 -30.515625 3.703125 -30.515625 L 9.640625 -30.515625 C 9.835938 -30.515625 10.007812 -30.445312 10.15625 -30.3125 C 10.300781 -30.1875 10.375 -30.019531 10.375 -29.8125 L 12.03125 -14.421875 C 12.09375 -14.304688 12.160156 -14.25 12.234375 -14.25 C 12.304688 -14.25 12.351562 -14.304688 12.375 -14.421875 L 17.703125 -29.8125 C 17.753906 -30.050781 17.867188 -30.226562 18.046875 -30.34375 C 18.222656 -30.457031 18.410156 -30.515625 18.609375 -30.515625 L 23.671875 -30.515625 C 24.140625 -30.515625 24.382812 -30.28125 24.40625 -29.8125 L 26.25 -14.421875 C 26.269531 -14.304688 26.320312 -14.25 26.40625 -14.25 C 26.5 -14.25 26.5625 -14.304688 26.59375 -14.421875 L 31.78125 -29.8125 C 31.832031 -30.019531 31.945312 -30.1875 32.125 -30.3125 C 32.300781 -30.445312 32.488281 -30.515625 32.6875 -30.515625 L 38.453125 -30.515625 C 38.890625 -30.515625 39.109375 -30.34375 39.109375 -30 L 39.015625 -29.640625 L 28.46875 -0.703125 C 28.289062 -0.234375 27.96875 0 27.5 0 L 21.890625 0 C 21.679688 0 21.507812 -0.0625 21.375 -0.1875 C 21.25 -0.320312 21.171875 -0.492188 21.140625 -0.703125 L 19.609375 -17.046875 C 19.585938 -17.191406 19.539062 -17.265625 19.46875 -17.265625 C 19.394531 -17.265625 19.328125 -17.191406 19.265625 -17.046875 L 14.03125 -0.703125 C 13.882812 -0.234375 13.597656 0 13.171875 0 Z M 7.890625 0 "/></g></g></g><g fill="#d9d9d9" fill-opacity="1"><g transform="translate(296.509867, 65.159298)"><g><path d="M 16.703125 -21.75 C 16.785156 -22.269531 17.070312 -22.53125 17.5625 -22.53125 L 23.0625 -22.53125 C 23.289062 -22.53125 23.460938 -22.457031 23.578125 -22.3125 C 23.703125 -22.175781 23.75 -21.988281 23.71875 -21.75 L 21.140625 -0.78125 C 21.109375 -0.550781 21.019531 -0.363281 20.875 -0.21875 C 20.726562 -0.0703125 20.539062 0 20.3125 0 L 14.828125 0 C 14.585938 0 14.398438 -0.0703125 14.265625 -0.21875 C 14.140625 -0.363281 14.09375 -0.550781 14.125 -0.78125 L 14.25 -1.828125 C 14.28125 -1.972656 14.257812 -2.0625 14.1875 -2.09375 C 14.113281 -2.125 14.035156 -2.082031 13.953125 -1.96875 C 12.640625 -0.425781 10.9375 0.34375 8.84375 0.34375 C 7.019531 0.34375 5.398438 -0.28125 3.984375 -1.53125 C 2.578125 -2.78125 1.710938 -4.390625 1.390625 -6.359375 C 1.242188 -7.296875 1.171875 -8.125 1.171875 -8.84375 C 1.171875 -9.425781 1.226562 -10.269531 1.34375 -11.375 C 1.582031 -13.351562 2.109375 -15.1875 2.921875 -16.875 C 3.796875 -18.675781 5.023438 -20.132812 6.609375 -21.25 C 8.191406 -22.375 9.882812 -22.9375 11.6875 -22.9375 C 13.863281 -22.9375 15.390625 -22.265625 16.265625 -20.921875 C 16.316406 -20.804688 16.382812 -20.765625 16.46875 -20.796875 C 16.5625 -20.828125 16.609375 -20.914062 16.609375 -21.0625 Z M 14.21875 -7.671875 C 14.820312 -8.660156 15.210938 -9.851562 15.390625 -11.25 C 15.441406 -11.945312 15.46875 -12.425781 15.46875 -12.6875 C 15.46875 -13.644531 15.335938 -14.441406 15.078125 -15.078125 C 14.617188 -16.066406 13.863281 -16.5625 12.8125 -16.5625 C 11.707031 -16.5625 10.804688 -16.054688 10.109375 -15.046875 C 9.503906 -14.140625 9.082031 -12.875 8.84375 -11.25 C 8.789062 -10.664062 8.765625 -10.257812 8.765625 -10.03125 C 8.765625 -9.09375 8.894531 -8.289062 9.15625 -7.625 C 9.5625 -6.550781 10.347656 -6.015625 11.515625 -6.015625 C 12.617188 -6.015625 13.519531 -6.566406 14.21875 -7.671875 Z M 14.21875 -7.671875 "/></g></g></g><g fill="#d9d9d9" fill-opacity="1"><g transform="translate(320.176571, 65.159298)"><g><path d="M 7.40625 0 C 6.945312 0 6.671875 -0.21875 6.578125 -0.65625 L 2.703125 -21.671875 L 2.703125 -21.84375 C 2.703125 -22.300781 2.945312 -22.53125 3.4375 -22.53125 L 9.5 -22.53125 C 9.707031 -22.53125 9.875 -22.460938 10 -22.328125 C 10.132812 -22.203125 10.21875 -22.039062 10.25 -21.84375 L 11.59375 -10.25 C 11.625 -10.125 11.675781 -10.0625 11.75 -10.0625 C 11.820312 -10.0625 11.875 -10.125 11.90625 -10.25 L 16.046875 -21.84375 C 16.097656 -22.039062 16.210938 -22.203125 16.390625 -22.328125 C 16.566406 -22.460938 16.753906 -22.53125 16.953125 -22.53125 L 23.0625 -22.5 C 23.257812 -22.5 23.414062 -22.460938 23.53125 -22.390625 C 23.65625 -22.316406 23.71875 -22.207031 23.71875 -22.0625 C 23.71875 -21.945312 23.671875 -21.800781 23.578125 -21.625 L 14.609375 -0.65625 C 14.398438 -0.21875 14.0625 0 13.59375 0 Z M 7.40625 0 "/></g></g></g><g fill="#d9d9d9" fill-opacity="1"><g transform="translate(342.840821, 65.159298)"><g><path d="M 12.640625 -5.796875 C 13.546875 -5.796875 14.390625 -5.929688 15.171875 -6.203125 C 15.953125 -6.484375 16.601562 -6.859375 17.125 -7.328125 C 17.332031 -7.523438 17.523438 -7.625 17.703125 -7.625 C 17.898438 -7.625 18.054688 -7.523438 18.171875 -7.328125 L 20.40625 -4.09375 C 20.519531 -3.945312 20.578125 -3.773438 20.578125 -3.578125 C 20.578125 -3.398438 20.488281 -3.195312 20.3125 -2.96875 C 19.207031 -1.914062 17.882812 -1.097656 16.34375 -0.515625 C 14.800781 0.0546875 13.203125 0.34375 11.546875 0.34375 C 9.628906 0.34375 7.972656 -0.0078125 6.578125 -0.71875 C 5.179688 -1.425781 4.078125 -2.421875 3.265625 -3.703125 C 2.273438 -5.328125 1.78125 -7.242188 1.78125 -9.453125 C 1.78125 -10.097656 1.828125 -10.769531 1.921875 -11.46875 C 2.066406 -12.769531 2.382812 -14.078125 2.875 -15.390625 C 3.75 -17.648438 5.171875 -19.472656 7.140625 -20.859375 C 9.117188 -22.242188 11.332031 -22.9375 13.78125 -22.9375 C 16.59375 -22.9375 18.753906 -22.035156 20.265625 -20.234375 C 21.773438 -18.429688 22.601562 -15.914062 22.75 -12.6875 C 22.75 -11.519531 22.722656 -10.632812 22.671875 -10.03125 C 22.640625 -9.5 22.347656 -9.234375 21.796875 -9.234375 L 9.03125 -9.234375 C 8.820312 -9.234375 8.71875 -9.132812 8.71875 -8.9375 C 8.71875 -8.5625 8.757812 -8.253906 8.84375 -8.015625 C 9.050781 -7.296875 9.476562 -6.742188 10.125 -6.359375 C 10.78125 -5.984375 11.617188 -5.796875 12.640625 -5.796875 Z M 12.859375 -16.703125 C 11.460938 -16.703125 10.398438 -15.988281 9.671875 -14.5625 L 9.421875 -13.90625 L 9.375 -13.78125 C 9.375 -13.71875 9.410156 -13.664062 9.484375 -13.625 C 9.554688 -13.582031 9.617188 -13.5625 9.671875 -13.5625 L 15.4375 -13.5625 C 15.550781 -13.5625 15.632812 -13.597656 15.6875 -13.671875 C 15.75 -13.742188 15.765625 -13.820312 15.734375 -13.90625 L 15.65625 -14.46875 C 15.507812 -15.164062 15.203125 -15.710938 14.734375 -16.109375 C 14.265625 -16.503906 13.640625 -16.703125 12.859375 -16.703125 Z M 12.859375 -16.703125 "/></g></g></g><g fill="#d9d9d9" fill-opacity="1"><g transform="translate(141.172557, 99.604104)"><g><path d="M 10.46875 -17.90625 C 11.90625 -17.90625 13.039062 -17.492188 13.875 -16.671875 C 14.707031 -15.859375 15.125 -14.765625 15.125 -13.390625 C 15.125 -13.210938 15.109375 -12.9375 15.078125 -12.5625 C 14.890625 -10.976562 14.234375 -9.707031 13.109375 -8.75 C 11.992188 -7.789062 10.628906 -7.3125 9.015625 -7.3125 L 5.078125 -7.3125 C 4.992188 -7.3125 4.9375 -7.257812 4.90625 -7.15625 L 4.09375 -0.40625 C 4.070312 -0.289062 4.019531 -0.191406 3.9375 -0.109375 C 3.863281 -0.0351562 3.769531 0 3.65625 0 L 1.5625 0 C 1.425781 0 1.332031 -0.0351562 1.28125 -0.109375 C 1.226562 -0.191406 1.207031 -0.289062 1.21875 -0.40625 L 3.328125 -17.5 C 3.359375 -17.769531 3.5 -17.90625 3.75 -17.90625 Z M 9.046875 -9.703125 C 9.960938 -9.703125 10.71875 -10.003906 11.3125 -10.609375 C 11.914062 -11.210938 12.21875 -11.984375 12.21875 -12.921875 C 12.21875 -13.671875 11.992188 -14.265625 11.546875 -14.703125 C 11.109375 -15.140625 10.503906 -15.359375 9.734375 -15.359375 L 6.078125 -15.359375 C 5.992188 -15.359375 5.9375 -15.304688 5.90625 -15.203125 L 5.265625 -9.859375 C 5.242188 -9.828125 5.242188 -9.789062 5.265625 -9.75 C 5.296875 -9.71875 5.335938 -9.703125 5.390625 -9.703125 Z M 9.046875 -9.703125 "/></g></g></g><g fill="#d9d9d9" fill-opacity="1"><g transform="translate(155.911704, 99.604104)"><g><path d="M 1.453125 0 C 1.335938 0 1.25 -0.0351562 1.1875 -0.109375 C 1.125 -0.191406 1.101562 -0.289062 1.125 -0.40625 L 3.21875 -17.46875 C 3.25 -17.738281 3.394531 -17.875 3.65625 -17.875 L 5.75 -17.875 C 5.863281 -17.875 5.953125 -17.835938 6.015625 -17.765625 C 6.078125 -17.691406 6.097656 -17.59375 6.078125 -17.46875 L 3.984375 -0.40625 C 3.960938 -0.289062 3.914062 -0.191406 3.84375 -0.109375 C 3.769531 -0.0351562 3.671875 0 3.546875 0 Z M 1.453125 0 "/></g></g></g><g fill="#d9d9d9" fill-opacity="1"><g transform="translate(161.940198, 99.604104)"><g><path d="M 10.265625 -12.640625 C 10.285156 -12.765625 10.332031 -12.863281 10.40625 -12.9375 C 10.488281 -13.007812 10.597656 -13.046875 10.734375 -13.046875 L 12.796875 -13.046875 C 13.066406 -13.046875 13.1875 -12.910156 13.15625 -12.640625 L 11.65625 -0.40625 C 11.632812 -0.289062 11.582031 -0.191406 11.5 -0.109375 C 11.425781 -0.0351562 11.320312 0 11.1875 0 L 9.125 0 C 8.851562 0 8.734375 -0.132812 8.765625 -0.40625 L 8.84375 -1.015625 C 8.851562 -1.085938 8.835938 -1.128906 8.796875 -1.140625 C 8.753906 -1.160156 8.71875 -1.144531 8.6875 -1.09375 C 7.863281 -0.226562 6.875 0.203125 5.71875 0.203125 C 4.5625 0.203125 3.613281 -0.113281 2.875 -0.75 C 2.132812 -1.394531 1.644531 -2.269531 1.40625 -3.375 C 1.300781 -3.914062 1.25 -4.476562 1.25 -5.0625 C 1.25 -5.601562 1.285156 -6.101562 1.359375 -6.5625 C 1.492188 -7.757812 1.753906 -8.800781 2.140625 -9.6875 C 2.648438 -10.8125 3.351562 -11.6875 4.25 -12.3125 C 5.144531 -12.945312 6.191406 -13.265625 7.390625 -13.265625 C 8.503906 -13.265625 9.390625 -12.863281 10.046875 -12.0625 C 10.078125 -11.988281 10.109375 -11.957031 10.140625 -11.96875 C 10.171875 -11.988281 10.195312 -12.035156 10.21875 -12.109375 Z M 8.5625 -3.578125 C 9.019531 -4.242188 9.332031 -5.234375 9.5 -6.546875 C 9.550781 -6.984375 9.578125 -7.378906 9.578125 -7.734375 C 9.578125 -8.503906 9.46875 -9.117188 9.25 -9.578125 C 8.90625 -10.328125 8.332031 -10.703125 7.53125 -10.703125 C 6.6875 -10.703125 5.984375 -10.34375 5.421875 -9.625 C 4.835938 -8.863281 4.46875 -7.828125 4.3125 -6.515625 C 4.257812 -6.109375 4.234375 -5.734375 4.234375 -5.390625 C 4.234375 -4.691406 4.335938 -4.097656 4.546875 -3.609375 C 4.890625 -2.785156 5.535156 -2.375 6.484375 -2.375 C 7.304688 -2.375 8 -2.773438 8.5625 -3.578125 Z M 8.5625 -3.578125 "/></g></g></g><g fill="#d9d9d9" fill-opacity="1"><g transform="translate(175.580928, 99.604104)"><g><path d="M 0.171875 5.078125 C 0.0546875 5.078125 0.015625 4.941406 0.046875 4.671875 L 0.25 3.046875 C 0.269531 2.921875 0.300781 2.816406 0.34375 2.734375 C 0.382812 2.660156 0.421875 2.625 0.453125 2.625 L 0.609375 2.625 C 1.296875 2.625 1.835938 2.5625 2.234375 2.4375 C 2.628906 2.3125 2.96875 2.066406 3.25 1.703125 C 3.53125 1.347656 3.816406 0.816406 4.109375 0.109375 C 4.128906 0.0546875 4.140625 -0.015625 4.140625 -0.109375 L 1.609375 -12.59375 L 1.609375 -12.703125 C 1.609375 -12.929688 1.738281 -13.046875 2 -13.046875 L 4.234375 -13.046875 C 4.472656 -13.046875 4.601562 -12.9375 4.625 -12.71875 L 6.03125 -4.265625 C 6.039062 -4.203125 6.066406 -4.171875 6.109375 -4.171875 C 6.160156 -4.171875 6.203125 -4.203125 6.234375 -4.265625 L 9.609375 -12.71875 C 9.710938 -12.9375 9.875 -13.046875 10.09375 -13.046875 L 12.34375 -13.046875 C 12.539062 -13.046875 12.640625 -12.972656 12.640625 -12.828125 C 12.640625 -12.722656 12.625 -12.644531 12.59375 -12.59375 L 6.609375 0.71875 C 6.066406 1.925781 5.554688 2.828125 5.078125 3.421875 C 4.609375 4.015625 4.015625 4.4375 3.296875 4.6875 C 2.578125 4.945312 1.585938 5.078125 0.328125 5.078125 Z M 0.171875 5.078125 "/></g></g></g><g fill="#d9d9d9" fill-opacity="1"><g transform="translate(187.688998, 99.604104)"><g><path d="M 1.453125 0 C 1.335938 0 1.25 -0.0351562 1.1875 -0.109375 C 1.125 -0.191406 1.101562 -0.289062 1.125 -0.40625 L 3.21875 -17.46875 C 3.25 -17.738281 3.394531 -17.875 3.65625 -17.875 L 5.75 -17.875 C 5.863281 -17.875 5.953125 -17.835938 6.015625 -17.765625 C 6.078125 -17.691406 6.097656 -17.59375 6.078125 -17.46875 L 3.984375 -0.40625 C 3.960938 -0.289062 3.914062 -0.191406 3.84375 -0.109375 C 3.769531 -0.0351562 3.671875 0 3.546875 0 Z M 1.453125 0 "/></g></g></g><g fill="#d9d9d9" fill-opacity="1"><g transform="translate(193.717492, 99.604104)"><g><path d="M 4.46875 -14.6875 C 3.988281 -14.6875 3.59375 -14.832031 3.28125 -15.125 C 2.976562 -15.414062 2.828125 -15.789062 2.828125 -16.25 C 2.828125 -16.863281 3.023438 -17.375 3.421875 -17.78125 C 3.828125 -18.1875 4.332031 -18.390625 4.9375 -18.390625 C 5.425781 -18.390625 5.816406 -18.242188 6.109375 -17.953125 C 6.410156 -17.671875 6.5625 -17.289062 6.5625 -16.8125 C 6.5625 -16.195312 6.359375 -15.6875 5.953125 -15.28125 C 5.554688 -14.882812 5.0625 -14.6875 4.46875 -14.6875 Z M 1.640625 0 C 1.359375 0 1.238281 -0.132812 1.28125 -0.40625 L 2.78125 -12.640625 C 2.832031 -12.910156 2.988281 -13.046875 3.25 -13.046875 L 5.3125 -13.046875 C 5.582031 -13.046875 5.703125 -12.910156 5.671875 -12.640625 L 4.171875 -0.40625 C 4.148438 -0.289062 4.097656 -0.191406 4.015625 -0.109375 C 3.941406 -0.0351562 3.847656 0 3.734375 0 Z M 1.640625 0 "/></g></g></g><g fill="#d9d9d9" fill-opacity="1"><g transform="translate(200.026979, 99.604104)"><g><path d="M 5.75 0.15625 C 4.28125 0.15625 3.113281 -0.144531 2.25 -0.75 C 1.394531 -1.351562 0.96875 -2.132812 0.96875 -3.09375 C 0.96875 -3.257812 0.976562 -3.382812 1 -3.46875 L 1.015625 -3.609375 C 1.054688 -3.878906 1.203125 -4.015625 1.453125 -4.015625 L 3.453125 -4.015625 C 3.566406 -4.015625 3.65625 -3.992188 3.71875 -3.953125 C 3.789062 -3.921875 3.820312 -3.878906 3.8125 -3.828125 L 3.8125 -3.65625 C 3.738281 -3.226562 3.910156 -2.851562 4.328125 -2.53125 C 4.742188 -2.21875 5.300781 -2.0625 6 -2.0625 C 6.695312 -2.0625 7.269531 -2.21875 7.71875 -2.53125 C 8.175781 -2.851562 8.40625 -3.242188 8.40625 -3.703125 C 8.40625 -4.046875 8.25 -4.304688 7.9375 -4.484375 C 7.632812 -4.660156 7.144531 -4.851562 6.46875 -5.0625 L 5.546875 -5.359375 C 4.390625 -5.722656 3.476562 -6.148438 2.8125 -6.640625 C 2.144531 -7.140625 1.8125 -7.863281 1.8125 -8.8125 C 1.8125 -9.03125 1.820312 -9.191406 1.84375 -9.296875 C 1.988281 -10.503906 2.554688 -11.457031 3.546875 -12.15625 C 4.535156 -12.851562 5.769531 -13.203125 7.25 -13.203125 C 8.644531 -13.203125 9.757812 -12.882812 10.59375 -12.25 C 11.4375 -11.625 11.859375 -10.800781 11.859375 -9.78125 C 11.859375 -9.582031 11.847656 -9.429688 11.828125 -9.328125 C 11.796875 -9.117188 11.648438 -9.015625 11.390625 -9.015625 L 9.484375 -9.015625 C 9.222656 -9.015625 9.09375 -9.066406 9.09375 -9.171875 L 9.125 -9.328125 C 9.175781 -9.765625 9.007812 -10.132812 8.625 -10.4375 C 8.238281 -10.738281 7.679688 -10.890625 6.953125 -10.890625 C 6.304688 -10.890625 5.769531 -10.765625 5.34375 -10.515625 C 4.914062 -10.265625 4.664062 -9.921875 4.59375 -9.484375 C 4.539062 -9.066406 4.695312 -8.75 5.0625 -8.53125 C 5.4375 -8.320312 6.046875 -8.09375 6.890625 -7.84375 L 7.4375 -7.6875 C 8.664062 -7.3125 9.625 -6.878906 10.3125 -6.390625 C 11 -5.910156 11.34375 -5.175781 11.34375 -4.1875 C 11.34375 -3.988281 11.332031 -3.835938 11.3125 -3.734375 C 11.164062 -2.523438 10.585938 -1.570312 9.578125 -0.875 C 8.578125 -0.1875 7.300781 0.15625 5.75 0.15625 Z M 5.75 0.15625 "/></g></g></g><g fill="#d9d9d9" fill-opacity="1"><g transform="translate(212.262775, 99.604104)"><g><path d="M 9.125 -11.0625 C 9.101562 -10.945312 9.050781 -10.847656 8.96875 -10.765625 C 8.894531 -10.691406 8.789062 -10.65625 8.65625 -10.65625 L 6.265625 -10.65625 C 6.160156 -10.65625 6.109375 -10.601562 6.109375 -10.5 L 5.359375 -4.46875 C 5.347656 -4.351562 5.34375 -4.191406 5.34375 -3.984375 C 5.34375 -3.503906 5.460938 -3.15625 5.703125 -2.9375 C 5.953125 -2.71875 6.332031 -2.609375 6.84375 -2.609375 L 7.484375 -2.609375 C 7.617188 -2.609375 7.710938 -2.566406 7.765625 -2.484375 C 7.816406 -2.410156 7.832031 -2.316406 7.8125 -2.203125 L 7.609375 -0.484375 C 7.578125 -0.234375 7.429688 -0.0859375 7.171875 -0.046875 L 5.984375 -0.03125 C 4.804688 -0.03125 3.914062 -0.21875 3.3125 -0.59375 C 2.71875 -0.96875 2.421875 -1.65625 2.421875 -2.65625 C 2.421875 -2.769531 2.441406 -3 2.484375 -3.34375 L 3.34375 -10.5 C 3.34375 -10.601562 3.300781 -10.65625 3.21875 -10.65625 L 1.921875 -10.65625 C 1.796875 -10.65625 1.703125 -10.691406 1.640625 -10.765625 C 1.585938 -10.847656 1.566406 -10.945312 1.578125 -11.0625 L 1.78125 -12.640625 C 1.820312 -12.910156 1.96875 -13.046875 2.21875 -13.046875 L 3.5 -13.046875 C 3.601562 -13.046875 3.660156 -13.097656 3.671875 -13.203125 L 4.03125 -16.0625 C 4.050781 -16.1875 4.097656 -16.285156 4.171875 -16.359375 C 4.253906 -16.441406 4.351562 -16.484375 4.46875 -16.484375 L 6.4375 -16.484375 C 6.570312 -16.484375 6.664062 -16.441406 6.71875 -16.359375 C 6.769531 -16.285156 6.785156 -16.1875 6.765625 -16.0625 L 6.4375 -13.203125 C 6.414062 -13.171875 6.414062 -13.132812 6.4375 -13.09375 C 6.46875 -13.0625 6.507812 -13.046875 6.5625 -13.046875 L 8.96875 -13.046875 C 9.101562 -13.046875 9.195312 -13.007812 9.25 -12.9375 C 9.300781 -12.863281 9.316406 -12.765625 9.296875 -12.640625 Z M 9.125 -11.0625 "/></g></g></g><g fill="#d9d9d9" fill-opacity="1"><g transform="translate(221.535417, 99.604104)"><g/></g></g><g fill="#d9d9d9" fill-opacity="1"><g transform="translate(226.491036, 99.604104)"><g><path d="M 12.21875 -9.34375 C 12.144531 -9.332031 12.101562 -9.304688 12.09375 -9.265625 C 12.082031 -9.222656 12.101562 -9.179688 12.15625 -9.140625 C 13.5 -8.460938 14.171875 -7.34375 14.171875 -5.78125 C 14.171875 -5.601562 14.15625 -5.328125 14.125 -4.953125 C 13.925781 -3.335938 13.253906 -2.109375 12.109375 -1.265625 C 10.960938 -0.421875 9.539062 0 7.84375 0 L 1.71875 0 C 1.4375 0 1.316406 -0.132812 1.359375 -0.40625 L 3.453125 -17.46875 C 3.503906 -17.738281 3.65625 -17.875 3.90625 -17.875 L 9.859375 -17.875 C 11.472656 -17.875 12.722656 -17.539062 13.609375 -16.875 C 14.492188 -16.21875 14.9375 -15.21875 14.9375 -13.875 C 14.9375 -13.695312 14.921875 -13.421875 14.890625 -13.046875 C 14.671875 -11.296875 13.78125 -10.0625 12.21875 -9.34375 Z M 6.203125 -15.328125 C 6.097656 -15.328125 6.046875 -15.273438 6.046875 -15.171875 L 5.46875 -10.5 C 5.46875 -10.394531 5.507812 -10.34375 5.59375 -10.34375 L 8.921875 -10.34375 C 9.804688 -10.34375 10.523438 -10.5625 11.078125 -11 C 11.628906 -11.4375 11.957031 -12.035156 12.0625 -12.796875 C 12.070312 -12.878906 12.078125 -13 12.078125 -13.15625 C 12.078125 -13.832031 11.851562 -14.363281 11.40625 -14.75 C 10.957031 -15.132812 10.332031 -15.328125 9.53125 -15.328125 Z M 8.171875 -2.578125 C 9.128906 -2.578125 9.890625 -2.859375 10.453125 -3.421875 C 11.023438 -3.984375 11.3125 -4.734375 11.3125 -5.671875 C 11.3125 -6.367188 11.085938 -6.910156 10.640625 -7.296875 C 10.191406 -7.691406 9.566406 -7.890625 8.765625 -7.890625 L 5.3125 -7.890625 C 5.226562 -7.890625 5.171875 -7.835938 5.140625 -7.734375 L 4.515625 -2.734375 C 4.515625 -2.628906 4.5625 -2.578125 4.65625 -2.578125 Z M 8.171875 -2.578125 "/></g></g></g><g fill="#d9d9d9" fill-opacity="1"><g transform="translate(241.894337, 99.604104)"><g><path d="M 10.0625 -12.640625 C 10.113281 -12.910156 10.269531 -13.046875 10.53125 -13.046875 L 12.5625 -13.046875 C 12.84375 -13.046875 12.960938 -12.910156 12.921875 -12.640625 L 11.421875 -0.40625 C 11.398438 -0.289062 11.347656 -0.191406 11.265625 -0.109375 C 11.191406 -0.0351562 11.097656 0 10.984375 0 L 8.921875 0 C 8.796875 0 8.703125 -0.0351562 8.640625 -0.109375 C 8.585938 -0.191406 8.566406 -0.289062 8.578125 -0.40625 L 8.65625 -1.078125 C 8.65625 -1.140625 8.640625 -1.175781 8.609375 -1.1875 C 8.578125 -1.207031 8.535156 -1.1875 8.484375 -1.125 C 7.710938 -0.257812 6.65625 0.171875 5.3125 0.171875 C 4.175781 0.171875 3.234375 -0.140625 2.484375 -0.765625 C 1.734375 -1.398438 1.359375 -2.300781 1.359375 -3.46875 C 1.359375 -3.601562 1.375 -3.828125 1.40625 -4.140625 L 2.453125 -12.640625 C 2.484375 -12.910156 2.628906 -13.046875 2.890625 -13.046875 L 4.984375 -13.046875 C 5.097656 -13.046875 5.1875 -13.007812 5.25 -12.9375 C 5.3125 -12.863281 5.332031 -12.765625 5.3125 -12.640625 L 4.375 -4.984375 C 4.351562 -4.878906 4.34375 -4.71875 4.34375 -4.5 C 4.34375 -3.832031 4.515625 -3.304688 4.859375 -2.921875 C 5.210938 -2.535156 5.710938 -2.34375 6.359375 -2.34375 C 7.085938 -2.34375 7.707031 -2.582031 8.21875 -3.0625 C 8.738281 -3.539062 9.046875 -4.179688 9.140625 -4.984375 Z M 10.0625 -12.640625 "/></g></g></g><g fill="#d9d9d9" fill-opacity="1"><g transform="translate(255.305175, 99.604104)"><g><path d="M 4.46875 -14.6875 C 3.988281 -14.6875 3.59375 -14.832031 3.28125 -15.125 C 2.976562 -15.414062 2.828125 -15.789062 2.828125 -16.25 C 2.828125 -16.863281 3.023438 -17.375 3.421875 -17.78125 C 3.828125 -18.1875 4.332031 -18.390625 4.9375 -18.390625 C 5.425781 -18.390625 5.816406 -18.242188 6.109375 -17.953125 C 6.410156 -17.671875 6.5625 -17.289062 6.5625 -16.8125 C 6.5625 -16.195312 6.359375 -15.6875 5.953125 -15.28125 C 5.554688 -14.882812 5.0625 -14.6875 4.46875 -14.6875 Z M 1.640625 0 C 1.359375 0 1.238281 -0.132812 1.28125 -0.40625 L 2.78125 -12.640625 C 2.832031 -12.910156 2.988281 -13.046875 3.25 -13.046875 L 5.3125 -13.046875 C 5.582031 -13.046875 5.703125 -12.910156 5.671875 -12.640625 L 4.171875 -0.40625 C 4.148438 -0.289062 4.097656 -0.191406 4.015625 -0.109375 C 3.941406 -0.0351562 3.847656 0 3.734375 0 Z M 1.640625 0 "/></g></g></g><g fill="#d9d9d9" fill-opacity="1"><g transform="translate(261.614662, 99.604104)"><g><path d="M 1.453125 0 C 1.335938 0 1.25 -0.0351562 1.1875 -0.109375 C 1.125 -0.191406 1.101562 -0.289062 1.125 -0.40625 L 3.21875 -17.46875 C 3.25 -17.738281 3.394531 -17.875 3.65625 -17.875 L 5.75 -17.875 C 5.863281 -17.875 5.953125 -17.835938 6.015625 -17.765625 C 6.078125 -17.691406 6.097656 -17.59375 6.078125 -17.46875 L 3.984375 -0.40625 C 3.960938 -0.289062 3.914062 -0.191406 3.84375 -0.109375 C 3.769531 -0.0351562 3.671875 0 3.546875 0 Z M 1.453125 0 "/></g></g></g><g fill="#d9d9d9" fill-opacity="1"><g transform="translate(267.643156, 99.604104)"><g><path d="M 10.859375 -17.46875 C 10.910156 -17.738281 11.0625 -17.875 11.3125 -17.875 L 13.390625 -17.875 C 13.660156 -17.875 13.78125 -17.738281 13.75 -17.46875 L 11.65625 -0.40625 C 11.632812 -0.289062 11.582031 -0.191406 11.5 -0.109375 C 11.425781 -0.0351562 11.320312 0 11.1875 0 L 9.125 0 C 8.851562 0 8.734375 -0.132812 8.765625 -0.40625 L 8.859375 -1.078125 C 8.859375 -1.140625 8.84375 -1.175781 8.8125 -1.1875 C 8.78125 -1.207031 8.738281 -1.1875 8.6875 -1.125 C 7.882812 -0.238281 6.890625 0.203125 5.703125 0.203125 C 4.535156 0.203125 3.582031 -0.113281 2.84375 -0.75 C 2.101562 -1.394531 1.613281 -2.269531 1.375 -3.375 C 1.269531 -3.914062 1.21875 -4.476562 1.21875 -5.0625 C 1.21875 -5.601562 1.253906 -6.101562 1.328125 -6.5625 C 1.460938 -7.757812 1.726562 -8.800781 2.125 -9.6875 C 2.632812 -10.8125 3.332031 -11.6875 4.21875 -12.3125 C 5.113281 -12.945312 6.160156 -13.265625 7.359375 -13.265625 C 8.515625 -13.265625 9.398438 -12.84375 10.015625 -12 C 10.046875 -11.957031 10.082031 -11.9375 10.125 -11.9375 C 10.164062 -11.945312 10.1875 -11.988281 10.1875 -12.0625 Z M 8.53125 -3.578125 C 8.988281 -4.242188 9.304688 -5.234375 9.484375 -6.546875 C 9.523438 -6.984375 9.546875 -7.378906 9.546875 -7.734375 C 9.546875 -8.503906 9.4375 -9.117188 9.21875 -9.578125 C 8.882812 -10.328125 8.316406 -10.703125 7.515625 -10.703125 C 6.660156 -10.703125 5.953125 -10.34375 5.390625 -9.625 C 4.804688 -8.863281 4.441406 -7.828125 4.296875 -6.515625 C 4.242188 -6.109375 4.21875 -5.734375 4.21875 -5.390625 C 4.21875 -4.691406 4.316406 -4.097656 4.515625 -3.609375 C 4.859375 -2.785156 5.507812 -2.375 6.46875 -2.375 C 7.28125 -2.375 7.96875 -2.773438 8.53125 -3.578125 Z M 8.53125 -3.578125 "/></g></g></g><g fill="#d9d9d9" fill-opacity="1"><g transform="translate(281.283886, 99.604104)"><g><path d="M 7 -2.296875 C 7.59375 -2.316406 8.132812 -2.445312 8.625 -2.6875 C 9.125 -2.9375 9.535156 -3.273438 9.859375 -3.703125 C 9.941406 -3.835938 10.0625 -3.90625 10.21875 -3.90625 C 10.289062 -3.90625 10.359375 -3.878906 10.421875 -3.828125 L 11.5 -2.859375 C 11.601562 -2.753906 11.65625 -2.648438 11.65625 -2.546875 C 11.65625 -2.460938 11.617188 -2.378906 11.546875 -2.296875 C 10.960938 -1.515625 10.226562 -0.898438 9.34375 -0.453125 C 8.457031 -0.015625 7.476562 0.203125 6.40625 0.203125 C 5.09375 0.203125 4.035156 -0.113281 3.234375 -0.75 C 2.441406 -1.394531 1.914062 -2.285156 1.65625 -3.421875 C 1.539062 -3.953125 1.484375 -4.566406 1.484375 -5.265625 C 1.484375 -5.691406 1.507812 -6.132812 1.5625 -6.59375 C 1.695312 -7.75 1.890625 -8.648438 2.140625 -9.296875 C 2.597656 -10.503906 3.335938 -11.46875 4.359375 -12.1875 C 5.390625 -12.90625 6.5625 -13.265625 7.875 -13.265625 C 9.539062 -13.265625 10.75 -12.769531 11.5 -11.78125 C 12.257812 -10.789062 12.640625 -9.375 12.640625 -7.53125 C 12.640625 -7.019531 12.613281 -6.484375 12.5625 -5.921875 C 12.550781 -5.804688 12.503906 -5.707031 12.421875 -5.625 C 12.347656 -5.550781 12.253906 -5.515625 12.140625 -5.515625 L 4.4375 -5.515625 C 4.351562 -5.515625 4.296875 -5.460938 4.265625 -5.359375 L 4.234375 -4.828125 C 4.234375 -4.046875 4.476562 -3.425781 4.96875 -2.96875 C 5.457031 -2.519531 6.132812 -2.296875 7 -2.296875 Z M 7.53125 -10.703125 C 6.90625 -10.703125 6.367188 -10.546875 5.921875 -10.234375 C 5.484375 -9.921875 5.15625 -9.484375 4.9375 -8.921875 C 4.832031 -8.710938 4.71875 -8.351562 4.59375 -7.84375 C 4.582031 -7.738281 4.617188 -7.6875 4.703125 -7.6875 L 9.6875 -7.6875 C 9.78125 -7.6875 9.835938 -7.738281 9.859375 -7.84375 C 9.859375 -8.300781 9.847656 -8.609375 9.828125 -8.765625 C 9.742188 -9.359375 9.5 -9.828125 9.09375 -10.171875 C 8.695312 -10.523438 8.175781 -10.703125 7.53125 -10.703125 Z M 7.53125 -10.703125 "/></g></g></g><g fill="#d9d9d9" fill-opacity="1"><g transform="translate(294.720266, 99.604104)"><g><path d="M 8.5625 -13.203125 C 9.070312 -13.203125 9.492188 -13.109375 9.828125 -12.921875 C 10.015625 -12.816406 10.066406 -12.648438 9.984375 -12.421875 L 9.34375 -10.296875 C 9.300781 -10.160156 9.238281 -10.070312 9.15625 -10.03125 C 9.082031 -10 8.976562 -10.003906 8.84375 -10.046875 C 8.65625 -10.109375 8.398438 -10.140625 8.078125 -10.140625 C 7.867188 -10.140625 7.707031 -10.128906 7.59375 -10.109375 C 6.894531 -10.078125 6.285156 -9.828125 5.765625 -9.359375 C 5.242188 -8.890625 4.929688 -8.28125 4.828125 -7.53125 L 3.953125 -0.40625 C 3.941406 -0.289062 3.894531 -0.191406 3.8125 -0.109375 C 3.738281 -0.0351562 3.644531 0 3.53125 0 L 1.4375 0 C 1.3125 0 1.21875 -0.0351562 1.15625 -0.109375 C 1.101562 -0.191406 1.082031 -0.289062 1.09375 -0.40625 L 2.609375 -12.640625 C 2.640625 -12.910156 2.785156 -13.046875 3.046875 -13.046875 L 5.109375 -13.046875 C 5.378906 -13.046875 5.5 -12.910156 5.46875 -12.640625 L 5.34375 -11.65625 C 5.34375 -11.582031 5.351562 -11.535156 5.375 -11.515625 C 5.40625 -11.503906 5.445312 -11.53125 5.5 -11.59375 C 6.289062 -12.664062 7.3125 -13.203125 8.5625 -13.203125 Z M 8.5625 -13.203125 "/></g></g></g></svg>