<svg xmlns="http://www.w3.org/2000/svg" xmlns:xlink="http://www.w3.org/1999/xlink" width="250" zoomAndPan="magnify" viewBox="0 0 187.5 149.999998" height="200" preserveAspectRatio="xMidYMid meet" version="1.0"><defs><g/><clipPath id="22a9aed9ed"><path d="M 0 0.199219 L 187 0.199219 L 187 149.800781 L 0 149.800781 Z M 0 0.199219 " clip-rule="nonzero"/></clipPath><clipPath id="ca3ae47343"><path d="M 56.398438 26 L 87 26 L 87 76.179688 L 56.398438 76.179688 Z M 56.398438 26 " clip-rule="nonzero"/></clipPath><clipPath id="7f0fd7e920"><path d="M 56.398438 25.929688 L 67 25.929688 L 67 41 L 56.398438 41 Z M 56.398438 25.929688 " clip-rule="nonzero"/></clipPath><clipPath id="44b73c6f84"><path d="M 56.398438 48 L 65 48 L 65 59 L 56.398438 59 Z M 56.398438 48 " clip-rule="nonzero"/></clipPath><clipPath id="f54775c4cc"><path d="M 66 25.929688 L 97 25.929688 L 97 76.179688 L 66 76.179688 Z M 66 25.929688 " clip-rule="nonzero"/></clipPath><clipPath id="9ffe2056f6"><path d="M 86 61 L 97 61 L 97 76.179688 L 86 76.179688 Z M 86 61 " clip-rule="nonzero"/></clipPath><clipPath id="150c425e5b"><path d="M 76 54 L 91 54 L 91 76.179688 L 76 76.179688 Z M 76 54 " clip-rule="nonzero"/></clipPath><clipPath id="1a76723f21"><path d="M 96 26 L 127 26 L 127 76.179688 L 96 76.179688 Z M 96 26 " clip-rule="nonzero"/></clipPath><clipPath id="f337cb7144"><path d="M 96 25.929688 L 107 25.929688 L 107 41 L 96 41 Z M 96 25.929688 " clip-rule="nonzero"/></clipPath><clipPath id="900b78fd31"><path d="M 106 25.929688 L 136.648438 25.929688 L 136.648438 76.179688 L 106 76.179688 Z M 106 25.929688 " clip-rule="nonzero"/></clipPath><clipPath id="9430dbb75a"><path d="M 126 61 L 136.648438 61 L 136.648438 76.179688 L 126 76.179688 Z M 126 61 " clip-rule="nonzero"/></clipPath><clipPath id="e73b429e5b"><path d="M 116 54 L 131 54 L 131 76.179688 L 116 76.179688 Z M 116 54 " clip-rule="nonzero"/></clipPath><clipPath id="1c0efd060e"><path d="M 128 43 L 136.648438 43 L 136.648438 54 L 128 54 Z M 128 43 " clip-rule="nonzero"/></clipPath></defs><g clip-path="url(#22a9aed9ed)"><path fill="#ffffff" d="M 0 0.199219 L 187.5 0.199219 L 187.5 157.699219 L 0 157.699219 Z M 0 0.199219 " fill-opacity="1" fill-rule="nonzero"/><path fill="#ffffff" d="M 0 0.199219 L 187.5 0.199219 L 187.5 150.199219 L 0 150.199219 Z M 0 0.199219 " fill-opacity="1" fill-rule="nonzero"/><path fill="#010c27" d="M 0 0.199219 L 187.5 0.199219 L 187.5 150.199219 L 0 150.199219 Z M 0 0.199219 " fill-opacity="1" fill-rule="nonzero"/></g><g clip-path="url(#ca3ae47343)"><path fill="#049fc7" d="M 86.644531 29.347656 L 60.511719 75.070312 C 59.910156 76.125 58.554688 76.496094 57.507812 75.886719 C 56.460938 75.273438 56.097656 73.910156 56.703125 72.851562 L 82.839844 27.128906 C 83.445312 26.070312 84.796875 25.707031 85.84375 26.316406 C 86.890625 26.925781 87.25 28.289062 86.644531 29.347656 Z M 86.644531 29.347656 " fill-opacity="1" fill-rule="evenodd"/></g><g clip-path="url(#7f0fd7e920)"><path fill="#44892e" d="M 62.578125 27.039062 C 63.183594 25.980469 64.535156 25.617188 65.582031 26.226562 C 66.628906 26.835938 66.988281 28.199219 66.386719 29.257812 L 60.574219 39.421875 C 59.972656 40.480469 58.617188 40.84375 57.574219 40.234375 C 56.527344 39.625 56.164062 38.261719 56.765625 37.203125 Z M 62.578125 27.039062 " fill-opacity="1" fill-rule="evenodd"/></g><path fill="#5eb443" d="M 66.617188 46.621094 L 76.441406 29.433594 C 77.046875 28.375 76.683594 27.011719 75.636719 26.402344 C 74.589844 25.792969 73.238281 26.15625 72.632812 27.214844 L 62.808594 44.402344 C 62.207031 45.460938 62.566406 46.824219 63.613281 47.433594 C 64.660156 48.046875 66.011719 47.679688 66.617188 46.621094 Z M 66.617188 46.621094 " fill-opacity="1" fill-rule="evenodd"/><g clip-path="url(#44b73c6f84)"><path fill="#5cc6d0" d="M 63.832031 51.496094 C 64.4375 50.4375 64.078125 49.070312 63.027344 48.460938 C 61.980469 47.851562 60.628906 48.214844 60.023438 49.277344 L 56.691406 55.105469 C 56.085938 56.164062 56.449219 57.527344 57.496094 58.136719 C 58.542969 58.75 59.894531 58.382812 60.496094 57.324219 Z M 63.832031 51.496094 " fill-opacity="1" fill-rule="evenodd"/></g><g clip-path="url(#f54775c4cc)"><path fill="#ff8f10" d="M 66.539062 72.761719 L 92.671875 27.039062 C 93.273438 25.988281 94.628906 25.617188 95.675781 26.226562 C 96.722656 26.839844 97.085938 28.199219 96.480469 29.261719 L 70.34375 74.980469 C 69.742188 76.039062 68.390625 76.40625 67.34375 75.796875 C 66.292969 75.1875 65.933594 73.820312 66.539062 72.761719 Z M 66.539062 72.761719 " fill-opacity="1" fill-rule="evenodd"/></g><g clip-path="url(#9ffe2056f6)"><path fill="#bd0353" d="M 90.601562 75.070312 C 90 76.128906 88.648438 76.496094 87.601562 75.886719 C 86.550781 75.277344 86.191406 73.910156 86.796875 72.851562 L 92.605469 62.6875 C 93.210938 61.632812 94.5625 61.265625 95.609375 61.875 C 96.65625 62.488281 97.019531 63.851562 96.414062 64.910156 L 90.605469 75.070312 Z M 90.601562 75.070312 " fill-opacity="1" fill-rule="evenodd"/></g><g clip-path="url(#150c425e5b)"><path fill="#f60c74" d="M 86.566406 55.492188 L 76.742188 72.675781 C 76.136719 73.734375 76.5 75.101562 77.546875 75.710938 C 78.59375 76.320312 79.945312 75.957031 80.550781 74.898438 L 90.375 57.710938 C 90.976562 56.652344 90.617188 55.285156 89.570312 54.675781 C 88.523438 54.0625 87.171875 54.429688 86.566406 55.488281 Z M 86.566406 55.492188 " fill-opacity="1" fill-rule="evenodd"/></g><path fill="#ed3237" d="M 89.347656 50.617188 C 88.746094 51.675781 89.105469 53.039062 90.15625 53.648438 C 91.199219 54.257812 92.554688 53.894531 93.15625 52.835938 L 96.492188 47.007812 C 97.09375 45.949219 96.734375 44.585938 95.6875 43.972656 C 94.640625 43.363281 93.289062 43.730469 92.683594 44.785156 L 89.351562 50.617188 Z M 89.347656 50.617188 " fill-opacity="1" fill-rule="evenodd"/><g clip-path="url(#1a76723f21)"><path fill="#049fc7" d="M 126.515625 29.347656 L 100.378906 75.070312 C 99.777344 76.125 98.425781 76.496094 97.375 75.886719 C 96.328125 75.273438 95.96875 73.910156 96.574219 72.851562 L 122.707031 27.128906 C 123.3125 26.070312 124.664062 25.707031 125.710938 26.316406 C 126.757812 26.925781 127.117188 28.289062 126.515625 29.347656 Z M 126.515625 29.347656 " fill-opacity="1" fill-rule="evenodd"/></g><g clip-path="url(#f337cb7144)"><path fill="#44892e" d="M 102.449219 27.039062 C 103.050781 25.980469 104.402344 25.617188 105.449219 26.226562 C 106.496094 26.835938 106.859375 28.199219 106.253906 29.257812 L 100.445312 39.421875 C 99.839844 40.480469 98.488281 40.84375 97.441406 40.234375 C 96.394531 39.625 96.03125 38.261719 96.636719 37.203125 L 102.445312 27.039062 Z M 102.449219 27.039062 " fill-opacity="1" fill-rule="evenodd"/></g><path fill="#5eb443" d="M 106.488281 46.621094 L 116.3125 29.433594 C 116.914062 28.375 116.554688 27.011719 115.503906 26.402344 C 114.457031 25.792969 113.105469 26.15625 112.503906 27.214844 L 102.679688 44.402344 C 102.074219 45.460938 102.433594 46.824219 103.480469 47.433594 C 104.53125 48.046875 105.878906 47.679688 106.484375 46.621094 Z M 106.488281 46.621094 " fill-opacity="1" fill-rule="evenodd"/><path fill="#5cc6d0" d="M 103.703125 51.496094 C 104.304688 50.4375 103.945312 49.070312 102.894531 48.460938 C 101.851562 47.851562 100.496094 48.214844 99.894531 49.277344 L 96.558594 55.105469 C 95.957031 56.164062 96.316406 57.527344 97.363281 58.136719 C 98.410156 58.75 99.761719 58.382812 100.367188 57.324219 L 103.699219 51.496094 Z M 103.703125 51.496094 " fill-opacity="1" fill-rule="evenodd"/><g clip-path="url(#900b78fd31)"><path fill="#ff8f10" d="M 106.40625 72.761719 L 132.542969 27.039062 C 133.144531 25.988281 134.496094 25.617188 135.542969 26.226562 C 136.589844 26.839844 136.953125 28.199219 136.347656 29.261719 L 110.214844 74.980469 C 109.609375 76.039062 108.257812 76.40625 107.210938 75.796875 C 106.164062 75.1875 105.800781 73.820312 106.40625 72.761719 Z M 106.40625 72.761719 " fill-opacity="1" fill-rule="evenodd"/></g><g clip-path="url(#9430dbb75a)"><path fill="#bd0353" d="M 130.472656 75.070312 C 129.867188 76.128906 128.515625 76.496094 127.46875 75.886719 C 126.421875 75.277344 126.0625 73.910156 126.664062 72.851562 L 132.472656 62.6875 C 133.078125 61.632812 134.433594 61.265625 135.476562 61.875 C 136.523438 62.488281 136.886719 63.851562 136.28125 64.910156 Z M 130.472656 75.070312 " fill-opacity="1" fill-rule="evenodd"/></g><g clip-path="url(#e73b429e5b)"><path fill="#f60c74" d="M 126.433594 55.492188 L 116.609375 72.675781 C 116.003906 73.734375 116.367188 75.101562 117.414062 75.710938 C 118.460938 76.320312 119.8125 75.957031 120.417969 74.898438 L 130.242188 57.710938 C 130.847656 56.652344 130.484375 55.285156 129.4375 54.675781 C 128.390625 54.0625 127.039062 54.429688 126.4375 55.488281 Z M 126.433594 55.492188 " fill-opacity="1" fill-rule="evenodd"/></g><g clip-path="url(#1c0efd060e)"><path fill="#ed3237" d="M 129.21875 50.617188 C 128.613281 51.675781 128.972656 53.039062 130.023438 53.648438 C 131.070312 54.257812 132.421875 53.894531 133.027344 52.835938 L 136.359375 47.007812 C 136.964844 45.949219 136.601562 44.585938 135.554688 43.972656 C 134.507812 43.363281 133.15625 43.730469 132.550781 44.785156 Z M 129.21875 50.617188 " fill-opacity="1" fill-rule="evenodd"/></g><g fill="#d9d9d9" fill-opacity="1"><g transform="translate(33.789408, 103.741767)"><g><path d="M 6.265625 0.1875 C 4.578125 0.1875 3.242188 -0.207031 2.265625 -1 C 1.296875 -1.789062 0.8125 -2.851562 0.8125 -4.1875 C 0.8125 -4.320312 0.828125 -4.546875 0.859375 -4.859375 L 0.90625 -5.15625 C 0.914062 -5.28125 0.960938 -5.378906 1.046875 -5.453125 C 1.140625 -5.535156 1.25 -5.578125 1.375 -5.578125 L 4.234375 -5.578125 C 4.359375 -5.578125 4.453125 -5.546875 4.515625 -5.484375 C 4.585938 -5.429688 4.613281 -5.367188 4.59375 -5.296875 L 4.546875 -5.015625 C 4.492188 -4.523438 4.6875 -4.082031 5.125 -3.6875 C 5.5625 -3.300781 6.171875 -3.109375 6.953125 -3.109375 C 7.660156 -3.109375 8.1875 -3.273438 8.53125 -3.609375 C 8.882812 -3.941406 9.0625 -4.3125 9.0625 -4.71875 C 9.0625 -5.101562 8.894531 -5.394531 8.5625 -5.59375 C 8.226562 -5.800781 7.628906 -6.054688 6.765625 -6.359375 C 6.679688 -6.390625 6.597656 -6.421875 6.515625 -6.453125 C 6.429688 -6.484375 6.347656 -6.515625 6.265625 -6.546875 C 5.421875 -6.859375 4.675781 -7.1875 4.03125 -7.53125 C 3.382812 -7.875 2.835938 -8.335938 2.390625 -8.921875 C 1.941406 -9.515625 1.71875 -10.234375 1.71875 -11.078125 C 1.71875 -11.203125 1.734375 -11.40625 1.765625 -11.6875 C 1.890625 -12.644531 2.238281 -13.484375 2.8125 -14.203125 C 3.382812 -14.921875 4.125 -15.472656 5.03125 -15.859375 C 5.945312 -16.253906 6.957031 -16.453125 8.0625 -16.453125 C 9.132812 -16.453125 10.082031 -16.265625 10.90625 -15.890625 C 11.738281 -15.515625 12.382812 -14.984375 12.84375 -14.296875 C 13.3125 -13.609375 13.546875 -12.816406 13.546875 -11.921875 C 13.546875 -11.773438 13.53125 -11.550781 13.5 -11.25 L 13.46875 -11.0625 C 13.457031 -10.9375 13.410156 -10.832031 13.328125 -10.75 C 13.253906 -10.675781 13.15625 -10.640625 13.03125 -10.640625 L 10.15625 -10.640625 C 10.03125 -10.640625 9.929688 -10.660156 9.859375 -10.703125 C 9.796875 -10.753906 9.769531 -10.8125 9.78125 -10.875 L 9.8125 -11.078125 L 9.828125 -11.3125 C 9.828125 -11.8125 9.617188 -12.242188 9.203125 -12.609375 C 8.796875 -12.972656 8.226562 -13.15625 7.5 -13.15625 C 6.863281 -13.15625 6.359375 -13.007812 5.984375 -12.71875 C 5.617188 -12.4375 5.4375 -12.039062 5.4375 -11.53125 C 5.4375 -11.25 5.535156 -11.003906 5.734375 -10.796875 C 5.941406 -10.597656 6.242188 -10.410156 6.640625 -10.234375 C 7.046875 -10.054688 7.664062 -9.8125 8.5 -9.5 C 9.425781 -9.175781 10.15625 -8.882812 10.6875 -8.625 C 11.226562 -8.375 11.726562 -7.96875 12.1875 -7.40625 C 12.644531 -6.851562 12.875 -6.144531 12.875 -5.28125 C 12.875 -5.164062 12.859375 -4.96875 12.828125 -4.6875 C 12.703125 -3.71875 12.34375 -2.863281 11.75 -2.125 C 11.164062 -1.382812 10.398438 -0.8125 9.453125 -0.40625 C 8.515625 -0.0078125 7.453125 0.1875 6.265625 0.1875 Z M 6.265625 0.1875 "/></g></g></g><g fill="#d9d9d9" fill-opacity="1"><g transform="translate(47.194082, 103.741767)"><g><path d="M 5.8125 0.1875 C 4.457031 0.1875 3.351562 -0.179688 2.5 -0.921875 C 1.65625 -1.671875 1.144531 -2.679688 0.96875 -3.953125 C 0.925781 -4.273438 0.90625 -4.609375 0.90625 -4.953125 C 0.90625 -5.304688 0.925781 -5.671875 0.96875 -6.046875 C 1.0625 -6.785156 1.25 -7.535156 1.53125 -8.296875 C 2.039062 -9.515625 2.804688 -10.46875 3.828125 -11.15625 C 4.847656 -11.851562 6.023438 -12.203125 7.359375 -12.203125 C 8.679688 -12.203125 9.757812 -11.851562 10.59375 -11.15625 C 11.425781 -10.46875 11.945312 -9.519531 12.15625 -8.3125 C 12.21875 -7.957031 12.25 -7.539062 12.25 -7.0625 C 12.25 -6.625 12.234375 -6.300781 12.203125 -6.09375 C 12.109375 -5.3125 11.9375 -4.628906 11.6875 -4.046875 C 11.21875 -2.742188 10.460938 -1.710938 9.421875 -0.953125 C 8.390625 -0.191406 7.1875 0.1875 5.8125 0.1875 Z M 6.234375 -3.109375 C 6.660156 -3.109375 7.035156 -3.25 7.359375 -3.53125 C 7.691406 -3.820312 7.945312 -4.21875 8.125 -4.71875 C 8.25 -5.0625 8.351562 -5.503906 8.4375 -6.046875 C 8.46875 -6.378906 8.484375 -6.617188 8.484375 -6.765625 C 8.484375 -7.429688 8.351562 -7.953125 8.09375 -8.328125 C 7.84375 -8.710938 7.453125 -8.90625 6.921875 -8.90625 C 6.035156 -8.90625 5.414062 -8.398438 5.0625 -7.390625 C 4.894531 -7.003906 4.785156 -6.554688 4.734375 -6.046875 C 4.691406 -5.742188 4.671875 -5.457031 4.671875 -5.1875 C 4.671875 -4.5625 4.800781 -4.054688 5.0625 -3.671875 C 5.320312 -3.296875 5.710938 -3.109375 6.234375 -3.109375 Z M 6.234375 -3.109375 "/></g></g></g><g fill="#d9d9d9" fill-opacity="1"><g transform="translate(59.762416, 103.741767)"><g><path d="M 8.671875 -11.59375 C 8.679688 -11.71875 8.722656 -11.816406 8.796875 -11.890625 C 8.878906 -11.972656 8.984375 -12.015625 9.109375 -12.015625 L 12.03125 -12.015625 C 12.15625 -12.015625 12.253906 -11.972656 12.328125 -11.890625 C 12.398438 -11.816406 12.425781 -11.71875 12.40625 -11.59375 L 11.03125 -0.421875 C 10.988281 -0.140625 10.835938 0 10.578125 0 L 7.640625 0 C 7.515625 0 7.421875 -0.0351562 7.359375 -0.109375 C 7.296875 -0.191406 7.273438 -0.296875 7.296875 -0.421875 L 7.359375 -1 C 7.359375 -1.070312 7.34375 -1.113281 7.3125 -1.125 C 7.28125 -1.144531 7.234375 -1.125 7.171875 -1.0625 C 6.460938 -0.226562 5.484375 0.1875 4.234375 0.1875 C 3.203125 0.1875 2.382812 -0.109375 1.78125 -0.703125 C 1.1875 -1.304688 0.890625 -2.15625 0.890625 -3.25 C 0.890625 -3.59375 0.898438 -3.859375 0.921875 -4.046875 L 1.859375 -11.59375 C 1.867188 -11.71875 1.910156 -11.816406 1.984375 -11.890625 C 2.066406 -11.972656 2.171875 -12.015625 2.296875 -12.015625 L 5.234375 -12.015625 C 5.347656 -12.015625 5.441406 -11.972656 5.515625 -11.890625 C 5.585938 -11.816406 5.613281 -11.71875 5.59375 -11.59375 L 4.765625 -4.921875 L 4.734375 -4.625 C 4.734375 -4.15625 4.847656 -3.789062 5.078125 -3.53125 C 5.316406 -3.269531 5.644531 -3.140625 6.0625 -3.140625 C 6.476562 -3.140625 6.84375 -3.269531 7.15625 -3.53125 C 7.46875 -3.789062 7.6875 -4.140625 7.8125 -4.578125 Z M 8.671875 -11.59375 "/></g></g></g><g fill="#d9d9d9" fill-opacity="1"><g transform="translate(72.144895, 103.741767)"><g><path d="M 8.578125 -12.203125 C 9.640625 -12.203125 10.488281 -11.882812 11.125 -11.25 C 11.757812 -10.625 12.078125 -9.753906 12.078125 -8.640625 C 12.078125 -8.503906 12.0625 -8.265625 12.03125 -7.921875 L 11.109375 -0.421875 C 11.085938 -0.296875 11.035156 -0.191406 10.953125 -0.109375 C 10.878906 -0.0351562 10.785156 0 10.671875 0 L 7.734375 0 C 7.609375 0 7.507812 -0.0351562 7.4375 -0.109375 C 7.375 -0.191406 7.347656 -0.296875 7.359375 -0.421875 L 8.203125 -7.09375 L 8.21875 -7.390625 C 8.21875 -7.835938 8.097656 -8.203125 7.859375 -8.484375 C 7.617188 -8.765625 7.289062 -8.90625 6.875 -8.90625 C 6.425781 -8.90625 6.035156 -8.738281 5.703125 -8.40625 C 5.367188 -8.070312 5.171875 -7.632812 5.109375 -7.09375 L 4.296875 -0.421875 C 4.253906 -0.140625 4.097656 0 3.828125 0 L 0.90625 0 C 0.78125 0 0.6875 -0.0351562 0.625 -0.109375 C 0.5625 -0.191406 0.539062 -0.296875 0.5625 -0.421875 L 1.921875 -11.59375 C 1.941406 -11.71875 1.988281 -11.816406 2.0625 -11.890625 C 2.144531 -11.972656 2.25 -12.015625 2.375 -12.015625 L 5.296875 -12.015625 C 5.421875 -12.015625 5.515625 -11.972656 5.578125 -11.890625 C 5.648438 -11.816406 5.679688 -11.71875 5.671875 -11.59375 L 5.578125 -10.9375 C 5.554688 -10.863281 5.566406 -10.816406 5.609375 -10.796875 C 5.648438 -10.785156 5.691406 -10.8125 5.734375 -10.875 C 6.429688 -11.757812 7.378906 -12.203125 8.578125 -12.203125 Z M 8.578125 -12.203125 "/></g></g></g><g fill="#d9d9d9" fill-opacity="1"><g transform="translate(84.550603, 103.741767)"><g><path d="M 9.4375 -15.84375 C 9.445312 -15.96875 9.488281 -16.066406 9.5625 -16.140625 C 9.644531 -16.222656 9.75 -16.265625 9.875 -16.265625 L 12.828125 -16.265625 C 12.953125 -16.265625 13.046875 -16.222656 13.109375 -16.140625 C 13.171875 -16.066406 13.191406 -15.96875 13.171875 -15.84375 L 11.265625 -0.421875 C 11.253906 -0.296875 11.207031 -0.191406 11.125 -0.109375 C 11.050781 -0.0351562 10.953125 0 10.828125 0 L 7.90625 0 C 7.78125 0 7.679688 -0.0351562 7.609375 -0.109375 C 7.535156 -0.191406 7.507812 -0.296875 7.53125 -0.421875 L 7.59375 -0.96875 C 7.613281 -1.050781 7.601562 -1.097656 7.5625 -1.109375 C 7.519531 -1.128906 7.476562 -1.109375 7.4375 -1.046875 C 6.738281 -0.222656 5.832031 0.1875 4.71875 0.1875 C 3.738281 0.1875 2.875 -0.144531 2.125 -0.8125 C 1.375 -1.476562 0.914062 -2.335938 0.75 -3.390625 C 0.664062 -3.890625 0.625 -4.332031 0.625 -4.71875 C 0.625 -5.03125 0.65625 -5.476562 0.71875 -6.0625 C 0.84375 -7.113281 1.125 -8.085938 1.5625 -8.984375 C 2.019531 -9.953125 2.671875 -10.734375 3.515625 -11.328125 C 4.359375 -11.921875 5.265625 -12.21875 6.234375 -12.21875 C 7.390625 -12.21875 8.203125 -11.863281 8.671875 -11.15625 C 8.703125 -11.09375 8.738281 -11.066406 8.78125 -11.078125 C 8.832031 -11.097656 8.859375 -11.144531 8.859375 -11.21875 Z M 7.578125 -4.09375 C 7.898438 -4.613281 8.109375 -5.25 8.203125 -6 C 8.234375 -6.363281 8.25 -6.617188 8.25 -6.765625 C 8.25 -7.273438 8.179688 -7.703125 8.046875 -8.046875 C 7.796875 -8.566406 7.390625 -8.828125 6.828125 -8.828125 C 6.242188 -8.828125 5.765625 -8.554688 5.390625 -8.015625 C 5.066406 -7.535156 4.84375 -6.863281 4.71875 -6 C 4.6875 -5.6875 4.671875 -5.46875 4.671875 -5.34375 C 4.671875 -4.84375 4.738281 -4.414062 4.875 -4.0625 C 5.09375 -3.488281 5.515625 -3.203125 6.140625 -3.203125 C 6.722656 -3.203125 7.203125 -3.5 7.578125 -4.09375 Z M 7.578125 -4.09375 "/></g></g></g><g fill="#d9d9d9" fill-opacity="1"><g transform="translate(97.21186, 103.741767)"><g><path d="M 4.203125 0 C 3.953125 0 3.820312 -0.113281 3.8125 -0.34375 L 1.578125 -15.796875 L 1.578125 -15.875 C 1.578125 -16.132812 1.707031 -16.265625 1.96875 -16.265625 L 5.140625 -16.265625 C 5.242188 -16.265625 5.332031 -16.226562 5.40625 -16.15625 C 5.488281 -16.09375 5.53125 -16.003906 5.53125 -15.890625 L 6.40625 -7.6875 C 6.4375 -7.625 6.472656 -7.59375 6.515625 -7.59375 C 6.554688 -7.59375 6.582031 -7.625 6.59375 -7.6875 L 9.4375 -15.890625 C 9.46875 -16.015625 9.53125 -16.109375 9.625 -16.171875 C 9.71875 -16.234375 9.816406 -16.265625 9.921875 -16.265625 L 12.609375 -16.265625 C 12.859375 -16.265625 12.992188 -16.140625 13.015625 -15.890625 L 13.984375 -7.6875 C 14.003906 -7.625 14.035156 -7.59375 14.078125 -7.59375 C 14.128906 -7.59375 14.160156 -7.625 14.171875 -7.6875 L 16.9375 -15.890625 C 16.96875 -16.003906 17.03125 -16.09375 17.125 -16.15625 C 17.21875 -16.226562 17.316406 -16.265625 17.421875 -16.265625 L 20.5 -16.265625 C 20.726562 -16.265625 20.84375 -16.171875 20.84375 -15.984375 L 20.796875 -15.796875 L 15.171875 -0.375 C 15.078125 -0.125 14.90625 0 14.65625 0 L 11.65625 0 C 11.550781 0 11.460938 -0.03125 11.390625 -0.09375 C 11.328125 -0.164062 11.285156 -0.257812 11.265625 -0.375 L 10.453125 -9.078125 C 10.441406 -9.160156 10.414062 -9.203125 10.375 -9.203125 C 10.332031 -9.203125 10.296875 -9.160156 10.265625 -9.078125 L 7.484375 -0.375 C 7.398438 -0.125 7.242188 0 7.015625 0 Z M 4.203125 0 "/></g></g></g><g fill="#d9d9d9" fill-opacity="1"><g transform="translate(116.587069, 103.741767)"><g><path d="M 8.90625 -11.59375 C 8.945312 -11.875 9.097656 -12.015625 9.359375 -12.015625 L 12.296875 -12.015625 C 12.421875 -12.015625 12.507812 -11.972656 12.5625 -11.890625 C 12.625 -11.816406 12.648438 -11.71875 12.640625 -11.59375 L 11.265625 -0.421875 C 11.253906 -0.296875 11.207031 -0.191406 11.125 -0.109375 C 11.050781 -0.0351562 10.953125 0 10.828125 0 L 7.90625 0 C 7.78125 0 7.679688 -0.0351562 7.609375 -0.109375 C 7.535156 -0.191406 7.507812 -0.296875 7.53125 -0.421875 L 7.59375 -0.96875 C 7.613281 -1.050781 7.601562 -1.097656 7.5625 -1.109375 C 7.519531 -1.128906 7.476562 -1.109375 7.4375 -1.046875 C 6.738281 -0.222656 5.832031 0.1875 4.71875 0.1875 C 3.738281 0.1875 2.875 -0.144531 2.125 -0.8125 C 1.375 -1.476562 0.914062 -2.335938 0.75 -3.390625 C 0.664062 -3.890625 0.625 -4.332031 0.625 -4.71875 C 0.625 -5.03125 0.65625 -5.476562 0.71875 -6.0625 C 0.84375 -7.113281 1.125 -8.085938 1.5625 -8.984375 C 2.019531 -9.953125 2.671875 -10.734375 3.515625 -11.328125 C 4.359375 -11.921875 5.265625 -12.21875 6.234375 -12.21875 C 7.390625 -12.21875 8.203125 -11.863281 8.671875 -11.15625 C 8.703125 -11.09375 8.738281 -11.066406 8.78125 -11.078125 C 8.832031 -11.097656 8.859375 -11.144531 8.859375 -11.21875 Z M 7.578125 -4.09375 C 7.898438 -4.613281 8.109375 -5.25 8.203125 -6 C 8.234375 -6.363281 8.25 -6.617188 8.25 -6.765625 C 8.25 -7.273438 8.179688 -7.703125 8.046875 -8.046875 C 7.796875 -8.566406 7.390625 -8.828125 6.828125 -8.828125 C 6.242188 -8.828125 5.765625 -8.554688 5.390625 -8.015625 C 5.066406 -7.535156 4.84375 -6.863281 4.71875 -6 C 4.6875 -5.6875 4.671875 -5.46875 4.671875 -5.34375 C 4.671875 -4.84375 4.738281 -4.414062 4.875 -4.0625 C 5.09375 -3.488281 5.515625 -3.203125 6.140625 -3.203125 C 6.722656 -3.203125 7.203125 -3.5 7.578125 -4.09375 Z M 7.578125 -4.09375 "/></g></g></g><g fill="#d9d9d9" fill-opacity="1"><g transform="translate(129.201865, 103.741767)"><g><path d="M 3.953125 0 C 3.703125 0 3.554688 -0.113281 3.515625 -0.34375 L 1.4375 -11.546875 L 1.4375 -11.640625 C 1.4375 -11.890625 1.566406 -12.015625 1.828125 -12.015625 L 5.0625 -12.015625 C 5.175781 -12.015625 5.265625 -11.976562 5.328125 -11.90625 C 5.398438 -11.832031 5.441406 -11.742188 5.453125 -11.640625 L 6.1875 -5.453125 C 6.195312 -5.390625 6.21875 -5.359375 6.25 -5.359375 C 6.289062 -5.359375 6.320312 -5.390625 6.34375 -5.453125 L 8.546875 -11.640625 C 8.578125 -11.742188 8.640625 -11.832031 8.734375 -11.90625 C 8.828125 -11.976562 8.925781 -12.015625 9.03125 -12.015625 L 12.296875 -11.984375 C 12.398438 -11.984375 12.484375 -11.960938 12.546875 -11.921875 C 12.609375 -11.890625 12.640625 -11.832031 12.640625 -11.75 C 12.640625 -11.6875 12.613281 -11.613281 12.5625 -11.53125 L 7.78125 -0.34375 C 7.675781 -0.113281 7.5 0 7.25 0 Z M 3.953125 0 "/></g></g></g><g fill="#d9d9d9" fill-opacity="1"><g transform="translate(141.282332, 103.741767)"><g><path d="M 6.734375 -3.09375 C 7.210938 -3.09375 7.660156 -3.164062 8.078125 -3.3125 C 8.503906 -3.457031 8.851562 -3.65625 9.125 -3.90625 C 9.238281 -4.007812 9.34375 -4.0625 9.4375 -4.0625 C 9.539062 -4.0625 9.625 -4.007812 9.6875 -3.90625 L 10.875 -2.1875 C 10.9375 -2.101562 10.96875 -2.007812 10.96875 -1.90625 C 10.96875 -1.8125 10.921875 -1.703125 10.828125 -1.578125 C 10.234375 -1.023438 9.523438 -0.59375 8.703125 -0.28125 C 7.890625 0.03125 7.039062 0.1875 6.15625 0.1875 C 5.132812 0.1875 4.25 0 3.5 -0.375 C 2.757812 -0.757812 2.175781 -1.289062 1.75 -1.96875 C 1.21875 -2.84375 0.953125 -3.867188 0.953125 -5.046875 C 0.953125 -5.378906 0.972656 -5.734375 1.015625 -6.109375 C 1.097656 -6.804688 1.269531 -7.503906 1.53125 -8.203125 C 2 -9.410156 2.757812 -10.378906 3.8125 -11.109375 C 4.863281 -11.847656 6.039062 -12.21875 7.34375 -12.21875 C 8.84375 -12.21875 9.992188 -11.738281 10.796875 -10.78125 C 11.609375 -9.820312 12.050781 -8.484375 12.125 -6.765625 C 12.125 -6.140625 12.109375 -5.664062 12.078125 -5.34375 C 12.066406 -5.0625 11.910156 -4.921875 11.609375 -4.921875 L 4.8125 -4.921875 C 4.695312 -4.921875 4.640625 -4.867188 4.640625 -4.765625 C 4.640625 -4.566406 4.664062 -4.40625 4.71875 -4.28125 C 4.820312 -3.882812 5.046875 -3.585938 5.390625 -3.390625 C 5.742188 -3.191406 6.191406 -3.09375 6.734375 -3.09375 Z M 6.859375 -8.90625 C 6.109375 -8.90625 5.539062 -8.523438 5.15625 -7.765625 L 5.015625 -7.40625 L 5 -7.34375 C 5 -7.3125 5.015625 -7.28125 5.046875 -7.25 C 5.085938 -7.226562 5.125 -7.21875 5.15625 -7.21875 L 8.21875 -7.21875 C 8.28125 -7.21875 8.328125 -7.238281 8.359375 -7.28125 C 8.390625 -7.320312 8.398438 -7.363281 8.390625 -7.40625 L 8.34375 -7.71875 C 8.257812 -8.082031 8.09375 -8.367188 7.84375 -8.578125 C 7.601562 -8.796875 7.273438 -8.90625 6.859375 -8.90625 Z M 6.859375 -8.90625 "/></g></g></g><g fill="#d9d9d9" fill-opacity="1"><g transform="translate(50.95188, 121.80304)"><g><path d="M 5.59375 -9.546875 C 6.351562 -9.546875 6.953125 -9.328125 7.390625 -8.890625 C 7.835938 -8.460938 8.0625 -7.878906 8.0625 -7.140625 C 8.0625 -7.046875 8.050781 -6.898438 8.03125 -6.703125 C 7.9375 -5.859375 7.59375 -5.175781 7 -4.65625 C 6.40625 -4.144531 5.675781 -3.890625 4.8125 -3.890625 L 2.71875 -3.890625 C 2.664062 -3.890625 2.628906 -3.863281 2.609375 -3.8125 L 2.1875 -0.21875 C 2.175781 -0.15625 2.148438 -0.101562 2.109375 -0.0625 C 2.066406 -0.0195312 2.015625 0 1.953125 0 L 0.828125 0 C 0.753906 0 0.703125 -0.0195312 0.671875 -0.0625 C 0.648438 -0.101562 0.644531 -0.15625 0.65625 -0.21875 L 1.765625 -9.328125 C 1.785156 -9.472656 1.863281 -9.546875 2 -9.546875 Z M 4.828125 -5.171875 C 5.316406 -5.171875 5.71875 -5.332031 6.03125 -5.65625 C 6.351562 -5.976562 6.515625 -6.390625 6.515625 -6.890625 C 6.515625 -7.296875 6.394531 -7.613281 6.15625 -7.84375 C 5.914062 -8.070312 5.59375 -8.1875 5.1875 -8.1875 L 3.25 -8.1875 C 3.195312 -8.1875 3.160156 -8.160156 3.140625 -8.109375 L 2.8125 -5.265625 C 2.800781 -5.242188 2.800781 -5.222656 2.8125 -5.203125 C 2.820312 -5.179688 2.84375 -5.171875 2.875 -5.171875 Z M 4.828125 -5.171875 "/></g></g></g><g fill="#d9d9d9" fill-opacity="1"><g transform="translate(58.808792, 121.80304)"><g><path d="M 0.78125 0 C 0.71875 0 0.664062 -0.0195312 0.625 -0.0625 C 0.59375 -0.101562 0.582031 -0.15625 0.59375 -0.21875 L 1.71875 -9.3125 C 1.738281 -9.457031 1.816406 -9.53125 1.953125 -9.53125 L 3.0625 -9.53125 C 3.125 -9.53125 3.171875 -9.507812 3.203125 -9.46875 C 3.234375 -9.4375 3.25 -9.382812 3.25 -9.3125 L 2.125 -0.21875 C 2.113281 -0.15625 2.085938 -0.101562 2.046875 -0.0625 C 2.003906 -0.0195312 1.953125 0 1.890625 0 Z M 0.78125 0 "/></g></g></g><g fill="#d9d9d9" fill-opacity="1"><g transform="translate(62.022363, 121.80304)"><g><path d="M 5.484375 -6.75 C 5.484375 -6.8125 5.503906 -6.863281 5.546875 -6.90625 C 5.585938 -6.945312 5.644531 -6.96875 5.71875 -6.96875 L 6.828125 -6.96875 C 6.972656 -6.96875 7.035156 -6.894531 7.015625 -6.75 L 6.21875 -0.21875 C 6.207031 -0.15625 6.179688 -0.101562 6.140625 -0.0625 C 6.097656 -0.0195312 6.039062 0 5.96875 0 L 4.859375 0 C 4.710938 0 4.648438 -0.0703125 4.671875 -0.21875 L 4.71875 -0.546875 C 4.726562 -0.578125 4.71875 -0.597656 4.6875 -0.609375 C 4.664062 -0.617188 4.644531 -0.609375 4.625 -0.578125 C 4.195312 -0.117188 3.671875 0.109375 3.046875 0.109375 C 2.429688 0.109375 1.925781 -0.0546875 1.53125 -0.390625 C 1.132812 -0.734375 0.875 -1.203125 0.75 -1.796875 C 0.695312 -2.085938 0.671875 -2.390625 0.671875 -2.703125 C 0.671875 -2.992188 0.6875 -3.257812 0.71875 -3.5 C 0.789062 -4.132812 0.929688 -4.6875 1.140625 -5.15625 C 1.410156 -5.757812 1.785156 -6.226562 2.265625 -6.5625 C 2.742188 -6.90625 3.300781 -7.078125 3.9375 -7.078125 C 4.539062 -7.078125 5.015625 -6.863281 5.359375 -6.4375 C 5.367188 -6.394531 5.382812 -6.378906 5.40625 -6.390625 C 5.425781 -6.398438 5.441406 -6.421875 5.453125 -6.453125 Z M 4.5625 -1.90625 C 4.8125 -2.257812 4.976562 -2.785156 5.0625 -3.484375 C 5.09375 -3.722656 5.109375 -3.9375 5.109375 -4.125 C 5.109375 -4.53125 5.050781 -4.859375 4.9375 -5.109375 C 4.75 -5.503906 4.441406 -5.703125 4.015625 -5.703125 C 3.566406 -5.703125 3.191406 -5.515625 2.890625 -5.140625 C 2.578125 -4.734375 2.378906 -4.175781 2.296875 -3.46875 C 2.273438 -3.25 2.265625 -3.050781 2.265625 -2.875 C 2.265625 -2.5 2.316406 -2.179688 2.421875 -1.921875 C 2.609375 -1.484375 2.953125 -1.265625 3.453125 -1.265625 C 3.890625 -1.265625 4.257812 -1.476562 4.5625 -1.90625 Z M 4.5625 -1.90625 "/></g></g></g><g fill="#d9d9d9" fill-opacity="1"><g transform="translate(69.293753, 121.80304)"><g><path d="M 0.09375 2.71875 C 0.03125 2.71875 0.0078125 2.644531 0.03125 2.5 L 0.140625 1.625 C 0.148438 1.5625 0.164062 1.507812 0.1875 1.46875 C 0.207031 1.425781 0.226562 1.40625 0.25 1.40625 L 0.328125 1.40625 C 0.691406 1.40625 0.976562 1.367188 1.1875 1.296875 C 1.40625 1.234375 1.585938 1.101562 1.734375 0.90625 C 1.890625 0.71875 2.039062 0.429688 2.1875 0.046875 C 2.195312 0.0234375 2.203125 -0.00390625 2.203125 -0.046875 L 0.859375 -6.71875 L 0.859375 -6.765625 C 0.859375 -6.898438 0.925781 -6.96875 1.0625 -6.96875 L 2.265625 -6.96875 C 2.390625 -6.96875 2.457031 -6.90625 2.46875 -6.78125 L 3.21875 -2.28125 C 3.226562 -2.238281 3.242188 -2.21875 3.265625 -2.21875 C 3.285156 -2.21875 3.304688 -2.238281 3.328125 -2.28125 L 5.125 -6.78125 C 5.175781 -6.90625 5.257812 -6.96875 5.375 -6.96875 L 6.578125 -6.96875 C 6.691406 -6.96875 6.75 -6.925781 6.75 -6.84375 C 6.75 -6.789062 6.738281 -6.75 6.71875 -6.71875 L 3.53125 0.375 C 3.238281 1.019531 2.960938 1.5 2.703125 1.8125 C 2.453125 2.132812 2.132812 2.363281 1.75 2.5 C 1.375 2.644531 0.847656 2.71875 0.171875 2.71875 Z M 0.09375 2.71875 "/></g></g></g><g fill="#d9d9d9" fill-opacity="1"><g transform="translate(75.748129, 121.80304)"><g><path d="M 0.78125 0 C 0.71875 0 0.664062 -0.0195312 0.625 -0.0625 C 0.59375 -0.101562 0.582031 -0.15625 0.59375 -0.21875 L 1.71875 -9.3125 C 1.738281 -9.457031 1.816406 -9.53125 1.953125 -9.53125 L 3.0625 -9.53125 C 3.125 -9.53125 3.171875 -9.507812 3.203125 -9.46875 C 3.234375 -9.4375 3.25 -9.382812 3.25 -9.3125 L 2.125 -0.21875 C 2.113281 -0.15625 2.085938 -0.101562 2.046875 -0.0625 C 2.003906 -0.0195312 1.953125 0 1.890625 0 Z M 0.78125 0 "/></g></g></g><g fill="#d9d9d9" fill-opacity="1"><g transform="translate(78.9617, 121.80304)"><g><path d="M 2.390625 -7.828125 C 2.128906 -7.828125 1.914062 -7.90625 1.75 -8.0625 C 1.59375 -8.21875 1.515625 -8.421875 1.515625 -8.671875 C 1.515625 -8.992188 1.617188 -9.265625 1.828125 -9.484375 C 2.046875 -9.703125 2.3125 -9.8125 2.625 -9.8125 C 2.894531 -9.8125 3.109375 -9.734375 3.265625 -9.578125 C 3.421875 -9.421875 3.5 -9.21875 3.5 -8.96875 C 3.5 -8.632812 3.390625 -8.359375 3.171875 -8.140625 C 2.960938 -7.929688 2.703125 -7.828125 2.390625 -7.828125 Z M 0.875 0 C 0.726562 0 0.664062 -0.0703125 0.6875 -0.21875 L 1.484375 -6.75 C 1.515625 -6.894531 1.597656 -6.96875 1.734375 -6.96875 L 2.828125 -6.96875 C 2.972656 -6.96875 3.039062 -6.894531 3.03125 -6.75 L 2.21875 -0.21875 C 2.207031 -0.15625 2.179688 -0.101562 2.140625 -0.0625 C 2.097656 -0.0195312 2.046875 0 1.984375 0 Z M 0.875 0 "/></g></g></g><g fill="#d9d9d9" fill-opacity="1"><g transform="translate(82.32506, 121.80304)"><g><path d="M 3.0625 0.078125 C 2.28125 0.078125 1.660156 -0.0820312 1.203125 -0.40625 C 0.742188 -0.726562 0.515625 -1.144531 0.515625 -1.65625 C 0.515625 -1.738281 0.519531 -1.804688 0.53125 -1.859375 L 0.546875 -1.921875 C 0.566406 -2.066406 0.644531 -2.140625 0.78125 -2.140625 L 1.84375 -2.140625 C 1.90625 -2.140625 1.953125 -2.128906 1.984375 -2.109375 C 2.023438 -2.085938 2.039062 -2.066406 2.03125 -2.046875 L 2.03125 -1.953125 C 1.988281 -1.722656 2.078125 -1.523438 2.296875 -1.359375 C 2.523438 -1.191406 2.828125 -1.109375 3.203125 -1.109375 C 3.578125 -1.109375 3.882812 -1.191406 4.125 -1.359375 C 4.363281 -1.523438 4.484375 -1.726562 4.484375 -1.96875 C 4.484375 -2.15625 4.398438 -2.296875 4.234375 -2.390625 C 4.066406 -2.484375 3.804688 -2.585938 3.453125 -2.703125 L 2.953125 -2.859375 C 2.335938 -3.046875 1.851562 -3.269531 1.5 -3.53125 C 1.144531 -3.800781 0.96875 -4.191406 0.96875 -4.703125 C 0.96875 -4.816406 0.972656 -4.898438 0.984375 -4.953125 C 1.066406 -5.597656 1.367188 -6.109375 1.890625 -6.484375 C 2.421875 -6.859375 3.082031 -7.046875 3.875 -7.046875 C 4.613281 -7.046875 5.207031 -6.875 5.65625 -6.53125 C 6.101562 -6.195312 6.328125 -5.757812 6.328125 -5.21875 C 6.328125 -5.113281 6.320312 -5.03125 6.3125 -4.96875 C 6.289062 -4.863281 6.210938 -4.8125 6.078125 -4.8125 L 5.0625 -4.8125 C 4.914062 -4.8125 4.84375 -4.835938 4.84375 -4.890625 L 4.859375 -4.96875 C 4.890625 -5.207031 4.800781 -5.40625 4.59375 -5.5625 C 4.394531 -5.71875 4.097656 -5.796875 3.703125 -5.796875 C 3.359375 -5.796875 3.070312 -5.726562 2.84375 -5.59375 C 2.613281 -5.46875 2.484375 -5.289062 2.453125 -5.0625 C 2.421875 -4.84375 2.503906 -4.675781 2.703125 -4.5625 C 2.898438 -4.445312 3.222656 -4.320312 3.671875 -4.1875 L 3.96875 -4.09375 C 4.625 -3.894531 5.132812 -3.664062 5.5 -3.40625 C 5.863281 -3.15625 6.046875 -2.765625 6.046875 -2.234375 C 6.046875 -2.128906 6.039062 -2.046875 6.03125 -1.984375 C 5.945312 -1.335938 5.640625 -0.832031 5.109375 -0.46875 C 4.578125 -0.101562 3.894531 0.078125 3.0625 0.078125 Z M 3.0625 0.078125 "/></g></g></g><g fill="#d9d9d9" fill-opacity="1"><g transform="translate(88.847522, 121.80304)"><g><path d="M 4.859375 -5.90625 C 4.847656 -5.832031 4.820312 -5.773438 4.78125 -5.734375 C 4.75 -5.703125 4.695312 -5.6875 4.625 -5.6875 L 3.34375 -5.6875 C 3.28125 -5.6875 3.25 -5.65625 3.25 -5.59375 L 2.859375 -2.390625 C 2.847656 -2.316406 2.84375 -2.226562 2.84375 -2.125 C 2.84375 -1.875 2.910156 -1.6875 3.046875 -1.5625 C 3.179688 -1.445312 3.382812 -1.390625 3.65625 -1.390625 L 3.984375 -1.390625 C 4.054688 -1.390625 4.109375 -1.367188 4.140625 -1.328125 C 4.171875 -1.285156 4.179688 -1.234375 4.171875 -1.171875 L 4.0625 -0.265625 C 4.039062 -0.117188 3.960938 -0.0390625 3.828125 -0.03125 L 3.1875 -0.015625 C 2.5625 -0.015625 2.085938 -0.113281 1.765625 -0.3125 C 1.453125 -0.507812 1.296875 -0.878906 1.296875 -1.421875 C 1.296875 -1.484375 1.304688 -1.601562 1.328125 -1.78125 L 1.78125 -5.59375 C 1.78125 -5.65625 1.757812 -5.6875 1.71875 -5.6875 L 1.015625 -5.6875 C 0.953125 -5.6875 0.90625 -5.703125 0.875 -5.734375 C 0.84375 -5.773438 0.832031 -5.832031 0.84375 -5.90625 L 0.953125 -6.75 C 0.972656 -6.894531 1.050781 -6.96875 1.1875 -6.96875 L 1.859375 -6.96875 C 1.921875 -6.96875 1.957031 -6.992188 1.96875 -7.046875 L 2.15625 -8.5625 C 2.164062 -8.632812 2.1875 -8.6875 2.21875 -8.71875 C 2.257812 -8.757812 2.316406 -8.78125 2.390625 -8.78125 L 3.4375 -8.78125 C 3.507812 -8.78125 3.554688 -8.757812 3.578125 -8.71875 C 3.609375 -8.6875 3.617188 -8.632812 3.609375 -8.5625 L 3.4375 -7.046875 C 3.425781 -7.023438 3.425781 -7.003906 3.4375 -6.984375 C 3.445312 -6.972656 3.46875 -6.96875 3.5 -6.96875 L 4.78125 -6.96875 C 4.851562 -6.96875 4.898438 -6.945312 4.921875 -6.90625 C 4.953125 -6.863281 4.960938 -6.8125 4.953125 -6.75 Z M 4.859375 -5.90625 "/></g></g></g><g fill="#d9d9d9" fill-opacity="1"><g transform="translate(93.79043, 121.80304)"><g/></g></g><g fill="#d9d9d9" fill-opacity="1"><g transform="translate(96.432096, 121.80304)"><g><path d="M 6.515625 -4.984375 C 6.472656 -4.972656 6.445312 -4.957031 6.4375 -4.9375 C 6.4375 -4.914062 6.453125 -4.894531 6.484375 -4.875 C 7.203125 -4.507812 7.5625 -3.910156 7.5625 -3.078125 C 7.5625 -2.984375 7.550781 -2.835938 7.53125 -2.640625 C 7.425781 -1.773438 7.066406 -1.117188 6.453125 -0.671875 C 5.847656 -0.222656 5.09375 0 4.1875 0 L 0.90625 0 C 0.757812 0 0.695312 -0.0703125 0.71875 -0.21875 L 1.84375 -9.3125 C 1.863281 -9.457031 1.941406 -9.53125 2.078125 -9.53125 L 5.265625 -9.53125 C 6.117188 -9.53125 6.78125 -9.351562 7.25 -9 C 7.726562 -8.644531 7.96875 -8.109375 7.96875 -7.390625 C 7.96875 -7.304688 7.957031 -7.164062 7.9375 -6.96875 C 7.820312 -6.03125 7.347656 -5.367188 6.515625 -4.984375 Z M 3.3125 -8.171875 C 3.257812 -8.171875 3.234375 -8.144531 3.234375 -8.09375 L 2.921875 -5.59375 C 2.921875 -5.539062 2.941406 -5.515625 2.984375 -5.515625 L 4.75 -5.515625 C 5.226562 -5.515625 5.613281 -5.628906 5.90625 -5.859375 C 6.195312 -6.097656 6.375 -6.421875 6.4375 -6.828125 C 6.4375 -6.867188 6.4375 -6.929688 6.4375 -7.015625 C 6.4375 -7.378906 6.316406 -7.660156 6.078125 -7.859375 C 5.835938 -8.066406 5.503906 -8.171875 5.078125 -8.171875 Z M 4.359375 -1.375 C 4.867188 -1.375 5.273438 -1.523438 5.578125 -1.828125 C 5.878906 -2.128906 6.03125 -2.53125 6.03125 -3.03125 C 6.03125 -3.394531 5.910156 -3.679688 5.671875 -3.890625 C 5.429688 -4.097656 5.097656 -4.203125 4.671875 -4.203125 L 2.828125 -4.203125 C 2.785156 -4.203125 2.753906 -4.175781 2.734375 -4.125 L 2.40625 -1.453125 C 2.40625 -1.398438 2.429688 -1.375 2.484375 -1.375 Z M 4.359375 -1.375 "/></g></g></g><g fill="#d9d9d9" fill-opacity="1"><g transform="translate(104.643044, 121.80304)"><g><path d="M 5.375 -6.75 C 5.394531 -6.894531 5.472656 -6.96875 5.609375 -6.96875 L 6.703125 -6.96875 C 6.847656 -6.96875 6.910156 -6.894531 6.890625 -6.75 L 6.09375 -0.21875 C 6.082031 -0.15625 6.054688 -0.101562 6.015625 -0.0625 C 5.972656 -0.0195312 5.921875 0 5.859375 0 L 4.75 0 C 4.6875 0 4.640625 -0.0195312 4.609375 -0.0625 C 4.578125 -0.101562 4.566406 -0.15625 4.578125 -0.21875 L 4.625 -0.578125 C 4.625 -0.609375 4.613281 -0.628906 4.59375 -0.640625 C 4.570312 -0.648438 4.550781 -0.632812 4.53125 -0.59375 C 4.113281 -0.132812 3.546875 0.09375 2.828125 0.09375 C 2.222656 0.09375 1.71875 -0.0703125 1.3125 -0.40625 C 0.914062 -0.738281 0.71875 -1.222656 0.71875 -1.859375 C 0.71875 -1.929688 0.726562 -2.046875 0.75 -2.203125 L 1.3125 -6.75 C 1.320312 -6.894531 1.398438 -6.96875 1.546875 -6.96875 L 2.65625 -6.96875 C 2.71875 -6.96875 2.765625 -6.945312 2.796875 -6.90625 C 2.828125 -6.863281 2.835938 -6.8125 2.828125 -6.75 L 2.328125 -2.65625 C 2.316406 -2.601562 2.3125 -2.515625 2.3125 -2.390625 C 2.3125 -2.035156 2.40625 -1.753906 2.59375 -1.546875 C 2.78125 -1.347656 3.046875 -1.25 3.390625 -1.25 C 3.785156 -1.25 4.117188 -1.375 4.390625 -1.625 C 4.660156 -1.882812 4.820312 -2.226562 4.875 -2.65625 Z M 5.375 -6.75 "/></g></g></g><g fill="#d9d9d9" fill-opacity="1"><g transform="translate(111.791879, 121.80304)"><g><path d="M 2.390625 -7.828125 C 2.128906 -7.828125 1.914062 -7.90625 1.75 -8.0625 C 1.59375 -8.21875 1.515625 -8.421875 1.515625 -8.671875 C 1.515625 -8.992188 1.617188 -9.265625 1.828125 -9.484375 C 2.046875 -9.703125 2.3125 -9.8125 2.625 -9.8125 C 2.894531 -9.8125 3.109375 -9.734375 3.265625 -9.578125 C 3.421875 -9.421875 3.5 -9.21875 3.5 -8.96875 C 3.5 -8.632812 3.390625 -8.359375 3.171875 -8.140625 C 2.960938 -7.929688 2.703125 -7.828125 2.390625 -7.828125 Z M 0.875 0 C 0.726562 0 0.664062 -0.0703125 0.6875 -0.21875 L 1.484375 -6.75 C 1.515625 -6.894531 1.597656 -6.96875 1.734375 -6.96875 L 2.828125 -6.96875 C 2.972656 -6.96875 3.039062 -6.894531 3.03125 -6.75 L 2.21875 -0.21875 C 2.207031 -0.15625 2.179688 -0.101562 2.140625 -0.0625 C 2.097656 -0.0195312 2.046875 0 1.984375 0 Z M 0.875 0 "/></g></g></g><g fill="#d9d9d9" fill-opacity="1"><g transform="translate(115.155239, 121.80304)"><g><path d="M 0.78125 0 C 0.71875 0 0.664062 -0.0195312 0.625 -0.0625 C 0.59375 -0.101562 0.582031 -0.15625 0.59375 -0.21875 L 1.71875 -9.3125 C 1.738281 -9.457031 1.816406 -9.53125 1.953125 -9.53125 L 3.0625 -9.53125 C 3.125 -9.53125 3.171875 -9.507812 3.203125 -9.46875 C 3.234375 -9.4375 3.25 -9.382812 3.25 -9.3125 L 2.125 -0.21875 C 2.113281 -0.15625 2.085938 -0.101562 2.046875 -0.0625 C 2.003906 -0.0195312 1.953125 0 1.890625 0 Z M 0.78125 0 "/></g></g></g><g fill="#d9d9d9" fill-opacity="1"><g transform="translate(118.36881, 121.80304)"><g><path d="M 5.796875 -9.3125 C 5.816406 -9.457031 5.894531 -9.53125 6.03125 -9.53125 L 7.140625 -9.53125 C 7.285156 -9.53125 7.347656 -9.457031 7.328125 -9.3125 L 6.21875 -0.21875 C 6.207031 -0.15625 6.179688 -0.101562 6.140625 -0.0625 C 6.097656 -0.0195312 6.039062 0 5.96875 0 L 4.859375 0 C 4.710938 0 4.648438 -0.0703125 4.671875 -0.21875 L 4.734375 -0.578125 C 4.734375 -0.609375 4.722656 -0.628906 4.703125 -0.640625 C 4.679688 -0.648438 4.65625 -0.632812 4.625 -0.59375 C 4.195312 -0.125 3.664062 0.109375 3.03125 0.109375 C 2.414062 0.109375 1.910156 -0.0546875 1.515625 -0.390625 C 1.117188 -0.734375 0.859375 -1.203125 0.734375 -1.796875 C 0.679688 -2.085938 0.65625 -2.390625 0.65625 -2.703125 C 0.65625 -2.992188 0.671875 -3.257812 0.703125 -3.5 C 0.773438 -4.132812 0.914062 -4.6875 1.125 -5.15625 C 1.40625 -5.757812 1.78125 -6.226562 2.25 -6.5625 C 2.726562 -6.90625 3.285156 -7.078125 3.921875 -7.078125 C 4.535156 -7.078125 5.007812 -6.851562 5.34375 -6.40625 C 5.363281 -6.375 5.382812 -6.359375 5.40625 -6.359375 C 5.425781 -6.367188 5.4375 -6.394531 5.4375 -6.4375 Z M 4.546875 -1.90625 C 4.796875 -2.257812 4.96875 -2.785156 5.0625 -3.484375 C 5.082031 -3.722656 5.09375 -3.9375 5.09375 -4.125 C 5.09375 -4.53125 5.035156 -4.859375 4.921875 -5.109375 C 4.734375 -5.503906 4.425781 -5.703125 4 -5.703125 C 3.550781 -5.703125 3.175781 -5.515625 2.875 -5.140625 C 2.5625 -4.734375 2.363281 -4.175781 2.28125 -3.46875 C 2.257812 -3.25 2.25 -3.050781 2.25 -2.875 C 2.25 -2.5 2.300781 -2.179688 2.40625 -1.921875 C 2.59375 -1.484375 2.941406 -1.265625 3.453125 -1.265625 C 3.878906 -1.265625 4.242188 -1.476562 4.546875 -1.90625 Z M 4.546875 -1.90625 "/></g></g></g><g fill="#d9d9d9" fill-opacity="1"><g transform="translate(125.640201, 121.80304)"><g><path d="M 3.734375 -1.21875 C 4.046875 -1.226562 4.332031 -1.300781 4.59375 -1.4375 C 4.863281 -1.570312 5.085938 -1.75 5.265625 -1.96875 C 5.304688 -2.039062 5.367188 -2.078125 5.453125 -2.078125 C 5.484375 -2.078125 5.519531 -2.066406 5.5625 -2.046875 L 6.125 -1.53125 C 6.1875 -1.46875 6.21875 -1.410156 6.21875 -1.359375 C 6.21875 -1.316406 6.195312 -1.269531 6.15625 -1.21875 C 5.84375 -0.800781 5.453125 -0.472656 4.984375 -0.234375 C 4.515625 -0.00390625 3.992188 0.109375 3.421875 0.109375 C 2.722656 0.109375 2.160156 -0.0546875 1.734375 -0.390625 C 1.304688 -0.734375 1.023438 -1.210938 0.890625 -1.828125 C 0.828125 -2.109375 0.796875 -2.4375 0.796875 -2.8125 C 0.796875 -3.03125 0.804688 -3.265625 0.828125 -3.515625 C 0.898438 -4.128906 1.003906 -4.609375 1.140625 -4.953125 C 1.390625 -5.597656 1.785156 -6.113281 2.328125 -6.5 C 2.867188 -6.882812 3.492188 -7.078125 4.203125 -7.078125 C 5.085938 -7.078125 5.734375 -6.8125 6.140625 -6.28125 C 6.546875 -5.75 6.75 -4.992188 6.75 -4.015625 C 6.75 -3.742188 6.734375 -3.457031 6.703125 -3.15625 C 6.691406 -3.09375 6.664062 -3.039062 6.625 -3 C 6.582031 -2.957031 6.53125 -2.9375 6.46875 -2.9375 L 2.375 -2.9375 C 2.320312 -2.9375 2.289062 -2.910156 2.28125 -2.859375 L 2.265625 -2.578125 C 2.265625 -2.160156 2.390625 -1.828125 2.640625 -1.578125 C 2.898438 -1.335938 3.265625 -1.21875 3.734375 -1.21875 Z M 4.015625 -5.703125 C 3.679688 -5.703125 3.394531 -5.617188 3.15625 -5.453125 C 2.925781 -5.285156 2.75 -5.050781 2.625 -4.75 C 2.570312 -4.644531 2.515625 -4.457031 2.453125 -4.1875 C 2.441406 -4.125 2.457031 -4.09375 2.5 -4.09375 L 5.15625 -4.09375 C 5.21875 -4.09375 5.253906 -4.125 5.265625 -4.1875 C 5.265625 -4.425781 5.257812 -4.585938 5.25 -4.671875 C 5.195312 -4.992188 5.0625 -5.242188 4.84375 -5.421875 C 4.632812 -5.609375 4.359375 -5.703125 4.015625 -5.703125 Z M 4.015625 -5.703125 "/></g></g></g><g fill="#d9d9d9" fill-opacity="1"><g transform="translate(132.802653, 121.80304)"><g><path d="M 4.5625 -7.046875 C 4.832031 -7.046875 5.0625 -6.992188 5.25 -6.890625 C 5.34375 -6.835938 5.367188 -6.75 5.328125 -6.625 L 4.984375 -5.484375 C 4.960938 -5.410156 4.929688 -5.363281 4.890625 -5.34375 C 4.847656 -5.332031 4.789062 -5.335938 4.71875 -5.359375 C 4.613281 -5.390625 4.476562 -5.40625 4.3125 -5.40625 C 4.195312 -5.40625 4.109375 -5.398438 4.046875 -5.390625 C 3.671875 -5.378906 3.34375 -5.25 3.0625 -5 C 2.789062 -4.75 2.628906 -4.421875 2.578125 -4.015625 L 2.109375 -0.21875 C 2.097656 -0.15625 2.070312 -0.101562 2.03125 -0.0625 C 1.988281 -0.0195312 1.9375 0 1.875 0 L 0.765625 0 C 0.703125 0 0.65625 -0.0195312 0.625 -0.0625 C 0.59375 -0.101562 0.578125 -0.15625 0.578125 -0.21875 L 1.390625 -6.75 C 1.410156 -6.894531 1.488281 -6.96875 1.625 -6.96875 L 2.71875 -6.96875 C 2.863281 -6.96875 2.929688 -6.894531 2.921875 -6.75 L 2.84375 -6.21875 C 2.84375 -6.175781 2.847656 -6.148438 2.859375 -6.140625 C 2.878906 -6.128906 2.898438 -6.144531 2.921875 -6.1875 C 3.347656 -6.757812 3.894531 -7.046875 4.5625 -7.046875 Z M 4.5625 -7.046875 "/></g></g></g></svg>