<svg xmlns="http://www.w3.org/2000/svg" xmlns:xlink="http://www.w3.org/1999/xlink" width="500" zoomAndPan="magnify" viewBox="0 0 375 299.999988" height="400" preserveAspectRatio="xMidYMid meet" version="1.0"><defs><g/><clipPath id="fc4bf0b34e"><path d="M 89.894531 28.484375 L 165 28.484375 L 165 149.234375 L 89.894531 149.234375 Z M 89.894531 28.484375 " clip-rule="nonzero"/></clipPath><clipPath id="f86db32c7c"><path d="M 90 28.484375 L 115 28.484375 L 115 64 L 90 64 Z M 90 28.484375 " clip-rule="nonzero"/></clipPath><clipPath id="7964d94aae"><path d="M 104 28.484375 L 140 28.484375 L 140 81 L 104 81 Z M 104 28.484375 " clip-rule="nonzero"/></clipPath><clipPath id="92d1561b6b"><path d="M 89.894531 81 L 109 81 L 109 107 L 89.894531 107 Z M 89.894531 81 " clip-rule="nonzero"/></clipPath><clipPath id="dc28937925"><path d="M 113 28.484375 L 188 28.484375 L 188 149.234375 L 113 149.234375 Z M 113 28.484375 " clip-rule="nonzero"/></clipPath><clipPath id="9a5c113576"><path d="M 163 114 L 188 114 L 188 149.234375 L 163 149.234375 Z M 163 114 " clip-rule="nonzero"/></clipPath><clipPath id="73205695ef"><path d="M 186 28.484375 L 261 28.484375 L 261 149.234375 L 186 149.234375 Z M 186 28.484375 " clip-rule="nonzero"/></clipPath><clipPath id="6fb40f50d9"><path d="M 186 28.484375 L 212 28.484375 L 212 64 L 186 64 Z M 186 28.484375 " clip-rule="nonzero"/></clipPath><clipPath id="493be6c4c7"><path d="M 201 28.484375 L 237 28.484375 L 237 81 L 201 81 Z M 201 28.484375 " clip-rule="nonzero"/></clipPath><clipPath id="b6f8813f44"><path d="M 210 28.484375 L 284.894531 28.484375 L 284.894531 149.234375 L 210 149.234375 Z M 210 28.484375 " clip-rule="nonzero"/></clipPath><clipPath id="a7f65c38d7"><path d="M 259 114 L 284.894531 114 L 284.894531 149.234375 L 259 149.234375 Z M 259 114 " clip-rule="nonzero"/></clipPath><clipPath id="894004110f"><path d="M 266 71 L 284.894531 71 L 284.894531 96 L 266 96 Z M 266 71 " clip-rule="nonzero"/></clipPath></defs><g clip-path="url(#fc4bf0b34e)"><path fill="#049fc7" d="M 163.390625 36.699219 L 99.882812 146.566406 C 98.421875 149.097656 95.132812 149.988281 92.589844 148.523438 C 90.042969 147.050781 89.164062 143.777344 90.636719 141.230469 L 154.140625 31.367188 C 155.609375 28.824219 158.890625 27.945312 161.4375 29.410156 C 163.980469 30.875 164.859375 34.15625 163.390625 36.699219 Z M 163.390625 36.699219 " fill-opacity="1" fill-rule="evenodd"/></g><g clip-path="url(#f86db32c7c)"><path fill="#44892e" d="M 104.910156 31.152344 C 106.378906 28.609375 109.664062 27.730469 112.207031 29.195312 C 114.75 30.660156 115.628906 33.941406 114.160156 36.480469 L 100.042969 60.90625 C 98.574219 63.441406 95.285156 64.324219 92.746094 62.859375 C 90.203125 61.390625 89.320312 58.113281 90.789062 55.570312 L 104.90625 31.152344 Z M 104.910156 31.152344 " fill-opacity="1" fill-rule="evenodd"/></g><g clip-path="url(#7964d94aae)"><path fill="#5eb443" d="M 114.726562 78.203125 L 138.597656 36.902344 C 140.066406 34.363281 139.183594 31.082031 136.640625 29.617188 C 134.09375 28.152344 130.8125 29.027344 129.34375 31.566406 L 105.46875 72.871094 C 104.003906 75.414062 104.878906 78.691406 107.421875 80.160156 C 109.96875 81.628906 113.253906 80.75 114.71875 78.207031 Z M 114.726562 78.203125 " fill-opacity="1" fill-rule="evenodd"/></g><g clip-path="url(#92d1561b6b)"><path fill="#5cc6d0" d="M 107.957031 89.914062 C 109.425781 87.371094 108.546875 84.09375 106 82.625 C 103.457031 81.160156 100.167969 82.035156 98.703125 84.582031 L 90.601562 98.585938 C 89.136719 101.128906 90.011719 104.410156 92.558594 105.875 C 95.101562 107.347656 98.386719 106.464844 99.851562 103.925781 L 107.953125 89.914062 Z M 107.957031 89.914062 " fill-opacity="1" fill-rule="evenodd"/></g><g clip-path="url(#dc28937925)"><path fill="#ff8f10" d="M 114.53125 141.019531 L 178.035156 31.152344 C 179.5 28.621094 182.789062 27.730469 185.332031 29.195312 C 187.875 30.664062 188.757812 33.941406 187.285156 36.488281 L 123.777344 146.351562 C 122.3125 148.890625 119.027344 149.773438 116.484375 148.308594 C 113.9375 146.839844 113.0625 143.5625 114.53125 141.019531 Z M 114.53125 141.019531 " fill-opacity="1" fill-rule="evenodd"/></g><g clip-path="url(#9a5c113576)"><path fill="#bd0353" d="M 173.003906 146.566406 C 171.535156 149.109375 168.253906 149.988281 165.707031 148.523438 C 163.164062 147.058594 162.289062 143.777344 163.753906 141.234375 L 177.871094 116.8125 C 179.339844 114.273438 182.628906 113.394531 185.167969 114.859375 C 187.710938 116.324219 188.59375 119.605469 187.125 122.148438 L 173.007812 146.566406 Z M 173.003906 146.566406 " fill-opacity="1" fill-rule="evenodd"/></g><path fill="#f60c74" d="M 163.195312 99.515625 L 139.320312 140.8125 C 137.855469 143.355469 138.734375 146.636719 141.28125 148.101562 C 143.824219 149.566406 147.109375 148.691406 148.578125 146.148438 L 172.449219 104.847656 C 173.917969 102.304688 173.042969 99.023438 170.496094 97.558594 C 167.953125 96.089844 164.667969 96.96875 163.199219 99.511719 Z M 163.195312 99.515625 " fill-opacity="1" fill-rule="evenodd"/><path fill="#ed3237" d="M 169.957031 87.804688 C 168.492188 90.347656 169.367188 93.625 171.917969 95.089844 C 174.457031 96.558594 177.746094 95.683594 179.214844 93.136719 L 187.3125 79.128906 C 188.777344 76.589844 187.902344 73.308594 185.359375 71.84375 C 182.8125 70.371094 179.53125 71.253906 178.0625 73.792969 L 169.964844 87.804688 Z M 169.957031 87.804688 " fill-opacity="1" fill-rule="evenodd"/><g clip-path="url(#73205695ef)"><path fill="#049fc7" d="M 260.269531 36.699219 L 196.761719 146.566406 C 195.300781 149.097656 192.011719 149.988281 189.464844 148.523438 C 186.921875 147.050781 186.039062 143.777344 187.511719 141.230469 L 251.019531 31.367188 C 252.484375 28.824219 255.769531 27.945312 258.3125 29.410156 C 260.859375 30.875 261.734375 34.15625 260.269531 36.699219 Z M 260.269531 36.699219 " fill-opacity="1" fill-rule="evenodd"/></g><g clip-path="url(#6fb40f50d9)"><path fill="#44892e" d="M 201.789062 31.152344 C 203.253906 28.609375 206.539062 27.730469 209.082031 29.195312 C 211.628906 30.660156 212.503906 33.941406 211.039062 36.480469 L 196.921875 60.90625 C 195.453125 63.441406 192.164062 64.324219 189.625 62.859375 C 187.078125 61.390625 186.199219 58.113281 187.664062 55.570312 L 201.78125 31.152344 Z M 201.789062 31.152344 " fill-opacity="1" fill-rule="evenodd"/></g><g clip-path="url(#493be6c4c7)"><path fill="#5eb443" d="M 211.601562 78.203125 L 235.476562 36.902344 C 236.941406 34.363281 236.0625 31.082031 233.515625 29.617188 C 230.972656 28.152344 227.6875 29.027344 226.222656 31.566406 L 202.347656 72.871094 C 200.878906 75.414062 201.757812 78.691406 204.300781 80.160156 C 206.84375 81.628906 210.128906 80.75 211.597656 78.207031 Z M 211.601562 78.203125 " fill-opacity="1" fill-rule="evenodd"/></g><path fill="#5cc6d0" d="M 204.832031 89.914062 C 206.300781 87.371094 205.425781 84.09375 202.875 82.625 C 200.335938 81.160156 197.046875 82.035156 195.578125 84.582031 L 187.480469 98.585938 C 186.011719 101.128906 186.890625 104.410156 189.433594 105.875 C 191.980469 107.347656 195.261719 106.464844 196.730469 103.925781 L 204.828125 89.914062 Z M 204.832031 89.914062 " fill-opacity="1" fill-rule="evenodd"/><g clip-path="url(#b6f8813f44)"><path fill="#ff8f10" d="M 211.40625 141.019531 L 274.914062 31.152344 C 276.375 28.621094 279.664062 27.730469 282.207031 29.195312 C 284.753906 30.664062 285.636719 33.941406 284.164062 36.488281 L 220.65625 146.351562 C 219.1875 148.890625 215.90625 149.773438 213.359375 148.308594 C 210.816406 146.839844 209.9375 143.5625 211.40625 141.019531 Z M 211.40625 141.019531 " fill-opacity="1" fill-rule="evenodd"/></g><g clip-path="url(#a7f65c38d7)"><path fill="#bd0353" d="M 269.882812 146.566406 C 268.414062 149.109375 265.128906 149.988281 262.585938 148.523438 C 260.039062 147.058594 259.164062 143.777344 260.632812 141.234375 L 274.75 116.8125 C 276.214844 114.273438 279.503906 113.394531 282.046875 114.859375 C 284.589844 116.324219 285.472656 119.605469 284.003906 122.148438 L 269.886719 146.566406 Z M 269.882812 146.566406 " fill-opacity="1" fill-rule="evenodd"/></g><path fill="#f60c74" d="M 260.074219 99.515625 L 236.199219 140.8125 C 234.730469 143.355469 235.613281 146.636719 238.15625 148.101562 C 240.703125 149.566406 243.984375 148.691406 245.453125 146.148438 L 269.328125 104.847656 C 270.792969 102.304688 269.917969 99.023438 267.375 97.558594 C 264.828125 96.089844 261.546875 96.96875 260.078125 99.511719 Z M 260.074219 99.515625 " fill-opacity="1" fill-rule="evenodd"/><g clip-path="url(#894004110f)"><path fill="#ed3237" d="M 266.835938 87.804688 C 265.367188 90.347656 266.242188 93.625 268.792969 95.089844 C 271.332031 96.558594 274.621094 95.683594 276.089844 93.136719 L 284.1875 79.128906 C 285.65625 76.589844 284.78125 73.308594 282.234375 71.84375 C 279.691406 70.371094 276.40625 71.253906 274.9375 73.792969 L 266.839844 87.804688 Z M 266.835938 87.804688 " fill-opacity="1" fill-rule="evenodd"/></g><g fill="#d9d9d9" fill-opacity="1"><g transform="translate(42.187374, 222.025567)"><g><path d="M 15.203125 0.453125 C 11.109375 0.453125 7.878906 -0.503906 5.515625 -2.421875 C 3.148438 -4.335938 1.96875 -6.910156 1.96875 -10.140625 C 1.96875 -10.472656 2.003906 -11.015625 2.078125 -11.765625 L 2.203125 -12.5 C 2.234375 -12.800781 2.351562 -13.046875 2.5625 -13.234375 C 2.769531 -13.421875 3.023438 -13.515625 3.328125 -13.515625 L 10.25 -13.515625 C 10.550781 -13.515625 10.785156 -13.445312 10.953125 -13.3125 C 11.117188 -13.175781 11.179688 -13.015625 11.140625 -12.828125 L 11.03125 -12.15625 C 10.882812 -10.957031 11.34375 -9.890625 12.40625 -8.953125 C 13.476562 -8.015625 14.953125 -7.546875 16.828125 -7.546875 C 18.554688 -7.546875 19.84375 -7.945312 20.6875 -8.75 C 21.53125 -9.5625 21.953125 -10.453125 21.953125 -11.421875 C 21.953125 -12.359375 21.546875 -13.070312 20.734375 -13.5625 C 19.929688 -14.050781 18.476562 -14.671875 16.375 -15.421875 C 16.1875 -15.492188 15.988281 -15.566406 15.78125 -15.640625 C 15.582031 -15.722656 15.390625 -15.800781 15.203125 -15.875 C 13.140625 -16.625 11.328125 -17.410156 9.765625 -18.234375 C 8.210938 -19.066406 6.890625 -20.191406 5.796875 -21.609375 C 4.710938 -23.035156 4.171875 -24.785156 4.171875 -26.859375 C 4.171875 -27.148438 4.207031 -27.632812 4.28125 -28.3125 C 4.582031 -30.644531 5.425781 -32.679688 6.8125 -34.421875 C 8.195312 -36.171875 9.992188 -37.515625 12.203125 -38.453125 C 14.421875 -39.390625 16.863281 -39.859375 19.53125 -39.859375 C 22.125 -39.859375 24.421875 -39.40625 26.421875 -38.5 C 28.429688 -37.601562 30 -36.316406 31.125 -34.640625 C 32.257812 -32.972656 32.828125 -31.050781 32.828125 -28.875 C 32.828125 -28.539062 32.785156 -28 32.703125 -27.25 L 32.65625 -26.796875 C 32.613281 -26.492188 32.5 -26.25 32.3125 -26.0625 C 32.125 -25.875 31.878906 -25.78125 31.578125 -25.78125 L 24.609375 -25.78125 C 24.304688 -25.78125 24.066406 -25.835938 23.890625 -25.953125 C 23.722656 -26.066406 23.660156 -26.195312 23.703125 -26.34375 L 23.75 -26.859375 L 23.8125 -27.421875 C 23.8125 -28.617188 23.3125 -29.65625 22.3125 -30.53125 C 21.320312 -31.414062 19.945312 -31.859375 18.1875 -31.859375 C 16.644531 -31.859375 15.421875 -31.507812 14.515625 -30.8125 C 13.617188 -30.125 13.171875 -29.160156 13.171875 -27.921875 C 13.171875 -27.242188 13.414062 -26.660156 13.90625 -26.171875 C 14.394531 -25.691406 15.125 -25.234375 16.09375 -24.796875 C 17.070312 -24.367188 18.578125 -23.78125 20.609375 -23.03125 C 22.859375 -22.238281 24.628906 -21.53125 25.921875 -20.90625 C 27.210938 -20.289062 28.410156 -19.304688 29.515625 -17.953125 C 30.628906 -16.609375 31.1875 -14.882812 31.1875 -12.78125 C 31.1875 -12.519531 31.148438 -12.050781 31.078125 -11.375 C 30.773438 -9.007812 29.910156 -6.9375 28.484375 -5.15625 C 27.054688 -3.375 25.195312 -1.992188 22.90625 -1.015625 C 20.625 -0.0351562 18.054688 0.453125 15.203125 0.453125 Z M 15.203125 0.453125 "/></g></g></g><g fill="#d9d9d9" fill-opacity="1"><g transform="translate(74.668311, 222.025567)"><g><path d="M 14.078125 0.453125 C 10.804688 0.453125 8.140625 -0.445312 6.078125 -2.25 C 4.015625 -4.050781 2.773438 -6.492188 2.359375 -9.578125 C 2.253906 -10.359375 2.203125 -11.160156 2.203125 -11.984375 C 2.203125 -12.847656 2.253906 -13.734375 2.359375 -14.640625 C 2.585938 -16.441406 3.039062 -18.257812 3.71875 -20.09375 C 4.957031 -23.0625 6.8125 -25.378906 9.28125 -27.046875 C 11.757812 -28.722656 14.613281 -29.5625 17.84375 -29.5625 C 21.03125 -29.5625 23.640625 -28.722656 25.671875 -27.046875 C 27.703125 -25.378906 28.957031 -23.082031 29.4375 -20.15625 C 29.59375 -19.289062 29.671875 -18.273438 29.671875 -17.109375 C 29.671875 -16.054688 29.632812 -15.269531 29.5625 -14.75 C 29.332031 -12.875 28.914062 -11.222656 28.3125 -9.796875 C 27.1875 -6.640625 25.363281 -4.140625 22.84375 -2.296875 C 20.332031 -0.460938 17.410156 0.453125 14.078125 0.453125 Z M 15.09375 -7.546875 C 16.132812 -7.546875 17.050781 -7.890625 17.84375 -8.578125 C 18.632812 -9.273438 19.253906 -10.222656 19.703125 -11.421875 C 20.003906 -12.253906 20.25 -13.328125 20.4375 -14.640625 C 20.507812 -15.460938 20.546875 -16.039062 20.546875 -16.375 C 20.546875 -17.988281 20.234375 -19.253906 19.609375 -20.171875 C 18.992188 -21.097656 18.050781 -21.5625 16.78125 -21.5625 C 14.632812 -21.5625 13.128906 -20.34375 12.265625 -17.90625 C 11.859375 -16.96875 11.597656 -15.878906 11.484375 -14.640625 C 11.367188 -13.921875 11.3125 -13.222656 11.3125 -12.546875 C 11.3125 -11.046875 11.628906 -9.835938 12.265625 -8.921875 C 12.910156 -8.003906 13.851562 -7.546875 15.09375 -7.546875 Z M 15.09375 -7.546875 "/></g></g></g><g fill="#d9d9d9" fill-opacity="1"><g transform="translate(105.122688, 222.025567)"><g><path d="M 21 -28.09375 C 21.039062 -28.394531 21.15625 -28.640625 21.34375 -28.828125 C 21.53125 -29.015625 21.769531 -29.109375 22.0625 -29.109375 L 29.15625 -29.109375 C 29.457031 -29.109375 29.691406 -29.015625 29.859375 -28.828125 C 30.035156 -28.640625 30.101562 -28.394531 30.0625 -28.09375 L 26.734375 -1.015625 C 26.628906 -0.335938 26.253906 0 25.609375 0 L 18.515625 0 C 18.222656 0 18 -0.09375 17.84375 -0.28125 C 17.695312 -0.46875 17.640625 -0.710938 17.671875 -1.015625 L 17.84375 -2.421875 C 17.84375 -2.609375 17.804688 -2.71875 17.734375 -2.75 C 17.660156 -2.789062 17.546875 -2.738281 17.390625 -2.59375 C 15.671875 -0.5625 13.289062 0.453125 10.25 0.453125 C 7.769531 0.453125 5.796875 -0.269531 4.328125 -1.71875 C 2.867188 -3.164062 2.140625 -5.21875 2.140625 -7.875 C 2.140625 -8.707031 2.175781 -9.347656 2.25 -9.796875 L 4.5 -28.09375 C 4.539062 -28.394531 4.65625 -28.640625 4.84375 -28.828125 C 5.03125 -29.015625 5.273438 -29.109375 5.578125 -29.109375 L 12.671875 -29.109375 C 12.960938 -29.109375 13.191406 -29.015625 13.359375 -28.828125 C 13.535156 -28.640625 13.601562 -28.394531 13.5625 -28.09375 L 11.546875 -11.9375 L 11.484375 -11.203125 C 11.484375 -10.078125 11.765625 -9.191406 12.328125 -8.546875 C 12.890625 -7.910156 13.675781 -7.59375 14.6875 -7.59375 C 15.707031 -7.59375 16.59375 -7.910156 17.34375 -8.546875 C 18.09375 -9.191406 18.617188 -10.039062 18.921875 -11.09375 Z M 21 -28.09375 "/></g></g></g><g fill="#d9d9d9" fill-opacity="1"><g transform="translate(135.126736, 222.025567)"><g><path d="M 20.78125 -29.5625 C 23.363281 -29.5625 25.425781 -28.800781 26.96875 -27.28125 C 28.507812 -25.757812 29.28125 -23.644531 29.28125 -20.9375 C 29.28125 -20.601562 29.238281 -20.023438 29.15625 -19.203125 L 26.90625 -1.015625 C 26.875 -0.710938 26.765625 -0.46875 26.578125 -0.28125 C 26.390625 -0.09375 26.144531 0 25.84375 0 L 18.75 0 C 18.445312 0 18.210938 -0.09375 18.046875 -0.28125 C 17.878906 -0.46875 17.8125 -0.710938 17.84375 -1.015625 L 19.875 -17.171875 L 19.921875 -17.90625 C 19.921875 -18.988281 19.628906 -19.867188 19.046875 -20.546875 C 18.472656 -21.222656 17.675781 -21.5625 16.65625 -21.5625 C 15.570312 -21.5625 14.625 -21.15625 13.8125 -20.34375 C 13.007812 -19.539062 12.535156 -18.484375 12.390625 -17.171875 L 10.421875 -1.015625 C 10.304688 -0.335938 9.925781 0 9.28125 0 L 2.203125 0 C 1.898438 0 1.671875 -0.09375 1.515625 -0.28125 C 1.367188 -0.46875 1.3125 -0.710938 1.34375 -1.015625 L 4.671875 -28.09375 C 4.710938 -28.394531 4.828125 -28.640625 5.015625 -28.828125 C 5.203125 -29.015625 5.445312 -29.109375 5.75 -29.109375 L 12.828125 -29.109375 C 13.128906 -29.109375 13.363281 -29.015625 13.53125 -28.828125 C 13.707031 -28.640625 13.773438 -28.394531 13.734375 -28.09375 L 13.515625 -26.515625 C 13.472656 -26.328125 13.5 -26.210938 13.59375 -26.171875 C 13.6875 -26.140625 13.789062 -26.195312 13.90625 -26.34375 C 15.59375 -28.488281 17.882812 -29.5625 20.78125 -29.5625 Z M 20.78125 -29.5625 "/></g></g></g><g fill="#d9d9d9" fill-opacity="1"><g transform="translate(165.187062, 222.025567)"><g><path d="M 22.859375 -38.390625 C 22.890625 -38.691406 23 -38.9375 23.1875 -39.125 C 23.375 -39.3125 23.617188 -39.40625 23.921875 -39.40625 L 31.078125 -39.40625 C 31.378906 -39.40625 31.601562 -39.3125 31.75 -39.125 C 31.90625 -38.9375 31.960938 -38.691406 31.921875 -38.390625 L 27.296875 -1.015625 C 27.265625 -0.710938 27.15625 -0.46875 26.96875 -0.28125 C 26.78125 -0.09375 26.535156 0 26.234375 0 L 19.140625 0 C 18.835938 0 18.601562 -0.09375 18.4375 -0.28125 C 18.269531 -0.46875 18.203125 -0.710938 18.234375 -1.015625 L 18.40625 -2.359375 C 18.445312 -2.546875 18.421875 -2.660156 18.328125 -2.703125 C 18.234375 -2.742188 18.128906 -2.6875 18.015625 -2.53125 C 16.328125 -0.539062 14.128906 0.453125 11.421875 0.453125 C 9.054688 0.453125 6.960938 -0.351562 5.140625 -1.96875 C 3.328125 -3.582031 2.210938 -5.664062 1.796875 -8.21875 C 1.609375 -9.414062 1.515625 -10.484375 1.515625 -11.421875 C 1.515625 -12.171875 1.59375 -13.257812 1.75 -14.6875 C 2.050781 -17.238281 2.722656 -19.601562 3.765625 -21.78125 C 4.890625 -24.113281 6.472656 -26 8.515625 -27.4375 C 10.566406 -28.882812 12.757812 -29.609375 15.09375 -29.609375 C 17.90625 -29.609375 19.875 -28.742188 21 -27.015625 C 21.070312 -26.867188 21.164062 -26.8125 21.28125 -26.84375 C 21.394531 -26.882812 21.453125 -27 21.453125 -27.1875 Z M 18.359375 -9.90625 C 19.140625 -11.1875 19.644531 -12.726562 19.875 -14.53125 C 19.945312 -15.425781 19.984375 -16.039062 19.984375 -16.375 C 19.984375 -17.613281 19.816406 -18.648438 19.484375 -19.484375 C 18.878906 -20.753906 17.898438 -21.390625 16.546875 -21.390625 C 15.117188 -21.390625 13.957031 -20.734375 13.0625 -19.421875 C 12.269531 -18.253906 11.722656 -16.625 11.421875 -14.53125 C 11.347656 -13.78125 11.3125 -13.253906 11.3125 -12.953125 C 11.3125 -11.742188 11.484375 -10.710938 11.828125 -9.859375 C 12.347656 -8.460938 13.359375 -7.765625 14.859375 -7.765625 C 16.285156 -7.765625 17.453125 -8.476562 18.359375 -9.90625 Z M 18.359375 -9.90625 "/></g></g></g><g fill="#d9d9d9" fill-opacity="1"><g transform="translate(195.866631, 222.025567)"><g><path d="M 10.1875 0 C 9.582031 0 9.265625 -0.28125 9.234375 -0.84375 L 3.828125 -38.28125 L 3.828125 -38.453125 C 3.828125 -39.085938 4.144531 -39.40625 4.78125 -39.40625 L 12.4375 -39.40625 C 12.695312 -39.40625 12.921875 -39.320312 13.109375 -39.15625 C 13.304688 -38.988281 13.40625 -38.769531 13.40625 -38.5 L 15.53125 -18.640625 C 15.613281 -18.484375 15.703125 -18.40625 15.796875 -18.40625 C 15.890625 -18.40625 15.953125 -18.484375 15.984375 -18.640625 L 22.859375 -38.5 C 22.929688 -38.800781 23.078125 -39.023438 23.296875 -39.171875 C 23.523438 -39.328125 23.769531 -39.40625 24.03125 -39.40625 L 30.5625 -39.40625 C 31.164062 -39.40625 31.488281 -39.101562 31.53125 -38.5 L 33.890625 -18.640625 C 33.929688 -18.484375 34.003906 -18.40625 34.109375 -18.40625 C 34.222656 -18.40625 34.300781 -18.484375 34.34375 -18.640625 L 41.046875 -38.5 C 41.117188 -38.769531 41.265625 -38.988281 41.484375 -39.15625 C 41.710938 -39.320312 41.957031 -39.40625 42.21875 -39.40625 L 49.65625 -39.40625 C 50.21875 -39.40625 50.5 -39.179688 50.5 -38.734375 L 50.390625 -38.28125 L 36.765625 -0.90625 C 36.535156 -0.300781 36.117188 0 35.515625 0 L 28.265625 0 C 27.992188 0 27.773438 -0.0820312 27.609375 -0.25 C 27.441406 -0.414062 27.335938 -0.632812 27.296875 -0.90625 L 25.328125 -22.015625 C 25.296875 -22.203125 25.234375 -22.296875 25.140625 -22.296875 C 25.046875 -22.296875 24.960938 -22.203125 24.890625 -22.015625 L 18.125 -0.90625 C 17.9375 -0.300781 17.5625 0 17 0 Z M 10.1875 0 "/></g></g></g><g fill="#d9d9d9" fill-opacity="1"><g transform="translate(242.814793, 222.025567)"><g><path d="M 21.5625 -28.09375 C 21.675781 -28.769531 22.050781 -29.109375 22.6875 -29.109375 L 29.78125 -29.109375 C 30.082031 -29.109375 30.304688 -29.015625 30.453125 -28.828125 C 30.609375 -28.640625 30.664062 -28.394531 30.625 -28.09375 L 27.296875 -1.015625 C 27.265625 -0.710938 27.15625 -0.46875 26.96875 -0.28125 C 26.78125 -0.09375 26.535156 0 26.234375 0 L 19.140625 0 C 18.835938 0 18.601562 -0.09375 18.4375 -0.28125 C 18.269531 -0.46875 18.203125 -0.710938 18.234375 -1.015625 L 18.40625 -2.359375 C 18.445312 -2.546875 18.421875 -2.660156 18.328125 -2.703125 C 18.234375 -2.742188 18.128906 -2.6875 18.015625 -2.53125 C 16.328125 -0.539062 14.128906 0.453125 11.421875 0.453125 C 9.054688 0.453125 6.960938 -0.351562 5.140625 -1.96875 C 3.328125 -3.582031 2.210938 -5.664062 1.796875 -8.21875 C 1.609375 -9.414062 1.515625 -10.484375 1.515625 -11.421875 C 1.515625 -12.171875 1.59375 -13.257812 1.75 -14.6875 C 2.050781 -17.238281 2.722656 -19.601562 3.765625 -21.78125 C 4.890625 -24.113281 6.472656 -26 8.515625 -27.4375 C 10.566406 -28.882812 12.757812 -29.609375 15.09375 -29.609375 C 17.90625 -29.609375 19.875 -28.742188 21 -27.015625 C 21.070312 -26.867188 21.164062 -26.8125 21.28125 -26.84375 C 21.394531 -26.882812 21.453125 -27 21.453125 -27.1875 Z M 18.359375 -9.90625 C 19.140625 -11.1875 19.644531 -12.726562 19.875 -14.53125 C 19.945312 -15.425781 19.984375 -16.039062 19.984375 -16.375 C 19.984375 -17.613281 19.816406 -18.648438 19.484375 -19.484375 C 18.878906 -20.753906 17.898438 -21.390625 16.546875 -21.390625 C 15.117188 -21.390625 13.957031 -20.734375 13.0625 -19.421875 C 12.269531 -18.253906 11.722656 -16.625 11.421875 -14.53125 C 11.347656 -13.78125 11.3125 -13.253906 11.3125 -12.953125 C 11.3125 -11.742188 11.484375 -10.710938 11.828125 -9.859375 C 12.347656 -8.460938 13.359375 -7.765625 14.859375 -7.765625 C 16.285156 -7.765625 17.453125 -8.476562 18.359375 -9.90625 Z M 18.359375 -9.90625 "/></g></g></g><g fill="#d9d9d9" fill-opacity="1"><g transform="translate(273.381752, 222.025567)"><g><path d="M 9.578125 0 C 8.972656 0 8.613281 -0.28125 8.5 -0.84375 L 3.484375 -27.984375 L 3.484375 -28.203125 C 3.484375 -28.804688 3.804688 -29.109375 4.453125 -29.109375 L 12.265625 -29.109375 C 12.535156 -29.109375 12.753906 -29.019531 12.921875 -28.84375 C 13.085938 -28.675781 13.191406 -28.460938 13.234375 -28.203125 L 14.96875 -13.234375 C 15.007812 -13.078125 15.078125 -13 15.171875 -13 C 15.265625 -13 15.332031 -13.078125 15.375 -13.234375 L 20.71875 -28.203125 C 20.789062 -28.460938 20.9375 -28.675781 21.15625 -28.84375 C 21.382812 -29.019531 21.632812 -29.109375 21.90625 -29.109375 L 29.78125 -29.046875 C 30.039062 -29.046875 30.242188 -29 30.390625 -28.90625 C 30.546875 -28.8125 30.625 -28.671875 30.625 -28.484375 C 30.625 -28.335938 30.566406 -28.148438 30.453125 -27.921875 L 18.859375 -0.84375 C 18.597656 -0.28125 18.164062 0 17.5625 0 Z M 9.578125 0 "/></g></g></g><g fill="#d9d9d9" fill-opacity="1"><g transform="translate(302.654003, 222.025567)"><g><path d="M 16.328125 -7.484375 C 17.492188 -7.484375 18.582031 -7.660156 19.59375 -8.015625 C 20.601562 -8.378906 21.445312 -8.859375 22.125 -9.453125 C 22.382812 -9.722656 22.628906 -9.859375 22.859375 -9.859375 C 23.117188 -9.859375 23.320312 -9.722656 23.46875 -9.453125 L 26.34375 -5.296875 C 26.5 -5.109375 26.578125 -4.878906 26.578125 -4.609375 C 26.578125 -4.390625 26.460938 -4.128906 26.234375 -3.828125 C 24.804688 -2.472656 23.097656 -1.421875 21.109375 -0.671875 C 19.117188 0.078125 17.054688 0.453125 14.921875 0.453125 C 12.441406 0.453125 10.300781 -0.00390625 8.5 -0.921875 C 6.695312 -1.847656 5.269531 -3.132812 4.21875 -4.78125 C 2.945312 -6.882812 2.3125 -9.363281 2.3125 -12.21875 C 2.3125 -13.039062 2.367188 -13.90625 2.484375 -14.8125 C 2.671875 -16.5 3.082031 -18.1875 3.71875 -19.875 C 4.84375 -22.800781 6.679688 -25.15625 9.234375 -26.9375 C 11.785156 -28.71875 14.640625 -29.609375 17.796875 -29.609375 C 21.429688 -29.609375 24.222656 -28.441406 26.171875 -26.109375 C 28.128906 -23.785156 29.203125 -20.539062 29.390625 -16.375 C 29.390625 -14.875 29.351562 -13.734375 29.28125 -12.953125 C 29.238281 -12.273438 28.859375 -11.9375 28.140625 -11.9375 L 11.65625 -11.9375 C 11.394531 -11.9375 11.265625 -11.804688 11.265625 -11.546875 C 11.265625 -11.054688 11.316406 -10.660156 11.421875 -10.359375 C 11.691406 -9.421875 12.25 -8.707031 13.09375 -8.21875 C 13.9375 -7.726562 15.015625 -7.484375 16.328125 -7.484375 Z M 16.609375 -21.5625 C 14.804688 -21.5625 13.4375 -20.640625 12.5 -18.796875 L 12.15625 -17.953125 L 12.109375 -17.796875 C 12.109375 -17.710938 12.15625 -17.644531 12.25 -17.59375 C 12.34375 -17.539062 12.425781 -17.515625 12.5 -17.515625 L 19.921875 -17.515625 C 20.078125 -17.515625 20.191406 -17.5625 20.265625 -17.65625 C 20.335938 -17.75 20.359375 -17.847656 20.328125 -17.953125 L 20.203125 -18.6875 C 20.015625 -19.59375 19.617188 -20.296875 19.015625 -20.796875 C 18.421875 -21.304688 17.617188 -21.5625 16.609375 -21.5625 Z M 16.609375 -21.5625 "/></g></g></g><g fill="#d9d9d9" fill-opacity="1"><g transform="translate(83.865759, 263.910696)"><g><path d="M 13.53125 -23.125 C 15.375 -23.125 16.832031 -22.59375 17.90625 -21.53125 C 18.988281 -20.476562 19.53125 -19.0625 19.53125 -17.28125 C 19.53125 -17.0625 19.503906 -16.710938 19.453125 -16.234375 C 19.210938 -14.179688 18.375 -12.535156 16.9375 -11.296875 C 15.5 -10.054688 13.734375 -9.4375 11.640625 -9.4375 L 6.5625 -9.4375 C 6.457031 -9.4375 6.378906 -9.367188 6.328125 -9.234375 L 5.28125 -0.53125 C 5.257812 -0.375 5.195312 -0.242188 5.09375 -0.140625 C 5 -0.046875 4.875 0 4.71875 0 L 2.015625 0 C 1.835938 0 1.710938 -0.046875 1.640625 -0.140625 C 1.578125 -0.242188 1.554688 -0.375 1.578125 -0.53125 L 4.28125 -22.59375 C 4.332031 -22.945312 4.519531 -23.125 4.84375 -23.125 Z M 11.671875 -12.53125 C 12.859375 -12.53125 13.835938 -12.921875 14.609375 -13.703125 C 15.378906 -14.484375 15.765625 -15.476562 15.765625 -16.6875 C 15.765625 -17.65625 15.476562 -18.421875 14.90625 -18.984375 C 14.332031 -19.546875 13.550781 -19.828125 12.5625 -19.828125 L 7.84375 -19.828125 C 7.738281 -19.828125 7.664062 -19.757812 7.625 -19.625 L 6.796875 -12.734375 C 6.773438 -12.691406 6.78125 -12.644531 6.8125 -12.59375 C 6.84375 -12.550781 6.890625 -12.53125 6.953125 -12.53125 Z M 11.671875 -12.53125 "/></g></g></g><g fill="#d9d9d9" fill-opacity="1"><g transform="translate(102.892155, 263.910696)"><g><path d="M 1.875 0 C 1.726562 0 1.613281 -0.046875 1.53125 -0.140625 C 1.457031 -0.242188 1.429688 -0.375 1.453125 -0.53125 L 4.15625 -22.5625 C 4.195312 -22.914062 4.382812 -23.09375 4.71875 -23.09375 L 7.421875 -23.09375 C 7.578125 -23.09375 7.691406 -23.039062 7.765625 -22.9375 C 7.847656 -22.84375 7.875 -22.71875 7.84375 -22.5625 L 5.140625 -0.53125 C 5.117188 -0.375 5.054688 -0.242188 4.953125 -0.140625 C 4.859375 -0.046875 4.734375 0 4.578125 0 Z M 1.875 0 "/></g></g></g><g fill="#d9d9d9" fill-opacity="1"><g transform="translate(110.674185, 263.910696)"><g><path d="M 13.265625 -16.328125 C 13.285156 -16.484375 13.34375 -16.609375 13.4375 -16.703125 C 13.539062 -16.804688 13.679688 -16.859375 13.859375 -16.859375 L 16.53125 -16.859375 C 16.875 -16.859375 17.023438 -16.679688 16.984375 -16.328125 L 15.046875 -0.53125 C 15.023438 -0.375 14.960938 -0.242188 14.859375 -0.140625 C 14.765625 -0.046875 14.628906 0 14.453125 0 L 11.78125 0 C 11.425781 0 11.269531 -0.175781 11.3125 -0.53125 L 11.40625 -1.3125 C 11.4375 -1.40625 11.421875 -1.460938 11.359375 -1.484375 C 11.304688 -1.503906 11.257812 -1.484375 11.21875 -1.421875 C 10.15625 -0.296875 8.878906 0.265625 7.390625 0.265625 C 5.890625 0.265625 4.660156 -0.144531 3.703125 -0.96875 C 2.753906 -1.789062 2.125 -2.921875 1.8125 -4.359375 C 1.675781 -5.054688 1.609375 -5.78125 1.609375 -6.53125 C 1.609375 -7.238281 1.65625 -7.890625 1.75 -8.484375 C 1.925781 -10.015625 2.265625 -11.351562 2.765625 -12.5 C 3.429688 -13.945312 4.335938 -15.078125 5.484375 -15.890625 C 6.640625 -16.710938 7.988281 -17.125 9.53125 -17.125 C 10.976562 -17.125 12.125 -16.601562 12.96875 -15.5625 C 13.007812 -15.476562 13.050781 -15.445312 13.09375 -15.46875 C 13.132812 -15.488281 13.164062 -15.546875 13.1875 -15.640625 Z M 11.046875 -4.625 C 11.640625 -5.476562 12.046875 -6.75 12.265625 -8.4375 C 12.335938 -9.007812 12.375 -9.53125 12.375 -10 C 12.375 -10.988281 12.226562 -11.78125 11.9375 -12.375 C 11.5 -13.34375 10.765625 -13.828125 9.734375 -13.828125 C 8.628906 -13.828125 7.71875 -13.363281 7 -12.4375 C 6.25 -11.445312 5.773438 -10.101562 5.578125 -8.40625 C 5.503906 -7.882812 5.46875 -7.398438 5.46875 -6.953125 C 5.46875 -6.054688 5.601562 -5.289062 5.875 -4.65625 C 6.3125 -3.59375 7.144531 -3.0625 8.375 -3.0625 C 9.4375 -3.0625 10.328125 -3.582031 11.046875 -4.625 Z M 11.046875 -4.625 "/></g></g></g><g fill="#d9d9d9" fill-opacity="1"><g transform="translate(128.282668, 263.910696)"><g><path d="M 0.234375 6.5625 C 0.078125 6.5625 0.0195312 6.382812 0.0625 6.03125 L 0.328125 3.921875 C 0.347656 3.765625 0.382812 3.632812 0.4375 3.53125 C 0.5 3.4375 0.550781 3.390625 0.59375 3.390625 L 0.796875 3.390625 C 1.671875 3.390625 2.363281 3.304688 2.875 3.140625 C 3.394531 2.984375 3.835938 2.671875 4.203125 2.203125 C 4.566406 1.742188 4.9375 1.050781 5.3125 0.125 C 5.332031 0.0625 5.34375 -0.0195312 5.34375 -0.125 L 2.078125 -16.265625 L 2.078125 -16.390625 C 2.078125 -16.703125 2.242188 -16.859375 2.578125 -16.859375 L 5.46875 -16.859375 C 5.78125 -16.859375 5.945312 -16.710938 5.96875 -16.421875 L 7.78125 -5.515625 C 7.800781 -5.421875 7.835938 -5.375 7.890625 -5.375 C 7.953125 -5.375 8.003906 -5.421875 8.046875 -5.515625 L 12.40625 -16.421875 C 12.53125 -16.710938 12.738281 -16.859375 13.03125 -16.859375 L 15.9375 -16.859375 C 16.195312 -16.859375 16.328125 -16.757812 16.328125 -16.5625 C 16.328125 -16.425781 16.304688 -16.328125 16.265625 -16.265625 L 8.546875 0.921875 C 7.835938 2.484375 7.175781 3.648438 6.5625 4.421875 C 5.945312 5.191406 5.175781 5.738281 4.25 6.0625 C 3.332031 6.394531 2.054688 6.5625 0.421875 6.5625 Z M 0.234375 6.5625 "/></g></g></g><g fill="#d9d9d9" fill-opacity="1"><g transform="translate(143.912659, 263.910696)"><g><path d="M 1.875 0 C 1.726562 0 1.613281 -0.046875 1.53125 -0.140625 C 1.457031 -0.242188 1.429688 -0.375 1.453125 -0.53125 L 4.15625 -22.5625 C 4.195312 -22.914062 4.382812 -23.09375 4.71875 -23.09375 L 7.421875 -23.09375 C 7.578125 -23.09375 7.691406 -23.039062 7.765625 -22.9375 C 7.847656 -22.84375 7.875 -22.71875 7.84375 -22.5625 L 5.140625 -0.53125 C 5.117188 -0.375 5.054688 -0.242188 4.953125 -0.140625 C 4.859375 -0.046875 4.734375 0 4.578125 0 Z M 1.875 0 "/></g></g></g><g fill="#d9d9d9" fill-opacity="1"><g transform="translate(151.694689, 263.910696)"><g><path d="M 5.765625 -18.96875 C 5.148438 -18.96875 4.644531 -19.15625 4.25 -19.53125 C 3.851562 -19.90625 3.65625 -20.390625 3.65625 -20.984375 C 3.65625 -21.773438 3.914062 -22.429688 4.4375 -22.953125 C 4.957031 -23.484375 5.597656 -23.75 6.359375 -23.75 C 7.003906 -23.75 7.519531 -23.5625 7.90625 -23.1875 C 8.289062 -22.8125 8.484375 -22.316406 8.484375 -21.703125 C 8.484375 -20.910156 8.222656 -20.253906 7.703125 -19.734375 C 7.179688 -19.222656 6.535156 -18.96875 5.765625 -18.96875 Z M 2.109375 0 C 1.753906 0 1.601562 -0.175781 1.65625 -0.53125 L 3.59375 -16.328125 C 3.65625 -16.679688 3.851562 -16.859375 4.1875 -16.859375 L 6.859375 -16.859375 C 7.210938 -16.859375 7.367188 -16.679688 7.328125 -16.328125 L 5.375 -0.53125 C 5.351562 -0.375 5.289062 -0.242188 5.1875 -0.140625 C 5.09375 -0.046875 4.96875 0 4.8125 0 Z M 2.109375 0 "/></g></g></g><g fill="#d9d9d9" fill-opacity="1"><g transform="translate(159.839428, 263.910696)"><g><path d="M 7.421875 0.203125 C 5.523438 0.203125 4.019531 -0.1875 2.90625 -0.96875 C 1.800781 -1.75 1.25 -2.753906 1.25 -3.984375 C 1.25 -4.210938 1.257812 -4.378906 1.28125 -4.484375 L 1.3125 -4.65625 C 1.363281 -5 1.550781 -5.171875 1.875 -5.171875 L 4.453125 -5.171875 C 4.609375 -5.171875 4.726562 -5.148438 4.8125 -5.109375 C 4.90625 -5.066406 4.941406 -5.015625 4.921875 -4.953125 L 4.921875 -4.71875 C 4.828125 -4.164062 5.050781 -3.6875 5.59375 -3.28125 C 6.132812 -2.875 6.851562 -2.671875 7.75 -2.671875 C 8.65625 -2.671875 9.398438 -2.875 9.984375 -3.28125 C 10.566406 -3.6875 10.859375 -4.1875 10.859375 -4.78125 C 10.859375 -5.21875 10.660156 -5.550781 10.265625 -5.78125 C 9.867188 -6.019531 9.226562 -6.269531 8.34375 -6.53125 L 7.15625 -6.921875 C 5.664062 -7.390625 4.488281 -7.941406 3.625 -8.578125 C 2.769531 -9.210938 2.34375 -10.144531 2.34375 -11.375 C 2.34375 -11.664062 2.351562 -11.875 2.375 -12 C 2.570312 -13.5625 3.304688 -14.789062 4.578125 -15.6875 C 5.859375 -16.59375 7.457031 -17.046875 9.375 -17.046875 C 11.175781 -17.046875 12.613281 -16.640625 13.6875 -15.828125 C 14.769531 -15.015625 15.3125 -13.953125 15.3125 -12.640625 C 15.3125 -12.367188 15.296875 -12.171875 15.265625 -12.046875 C 15.222656 -11.773438 15.039062 -11.640625 14.71875 -11.640625 L 12.234375 -11.640625 C 11.910156 -11.640625 11.75 -11.707031 11.75 -11.84375 L 11.78125 -12.046875 C 11.84375 -12.609375 11.625 -13.082031 11.125 -13.46875 C 10.632812 -13.851562 9.914062 -14.046875 8.96875 -14.046875 C 8.132812 -14.046875 7.441406 -13.882812 6.890625 -13.5625 C 6.335938 -13.25 6.019531 -12.804688 5.9375 -12.234375 C 5.875 -11.710938 6.078125 -11.3125 6.546875 -11.03125 C 7.015625 -10.757812 7.800781 -10.457031 8.90625 -10.125 L 9.59375 -9.921875 C 11.175781 -9.441406 12.410156 -8.890625 13.296875 -8.265625 C 14.191406 -7.640625 14.640625 -6.6875 14.640625 -5.40625 C 14.640625 -5.144531 14.628906 -4.945312 14.609375 -4.8125 C 14.410156 -3.25 13.660156 -2.019531 12.359375 -1.125 C 11.066406 -0.238281 9.421875 0.203125 7.421875 0.203125 Z M 7.421875 0.203125 "/></g></g></g><g fill="#d9d9d9" fill-opacity="1"><g transform="translate(175.634312, 263.910696)"><g><path d="M 11.78125 -14.28125 C 11.757812 -14.125 11.695312 -13.992188 11.59375 -13.890625 C 11.5 -13.796875 11.363281 -13.75 11.1875 -13.75 L 8.078125 -13.75 C 7.953125 -13.75 7.890625 -13.6875 7.890625 -13.5625 L 6.921875 -5.765625 C 6.898438 -5.617188 6.890625 -5.410156 6.890625 -5.140625 C 6.890625 -4.523438 7.046875 -4.070312 7.359375 -3.78125 C 7.679688 -3.5 8.175781 -3.359375 8.84375 -3.359375 L 9.671875 -3.359375 C 9.835938 -3.359375 9.953125 -3.304688 10.015625 -3.203125 C 10.085938 -3.109375 10.113281 -2.988281 10.09375 -2.84375 L 9.828125 -0.625 C 9.785156 -0.289062 9.597656 -0.101562 9.265625 -0.0625 L 7.71875 -0.03125 C 6.195312 -0.03125 5.050781 -0.269531 4.28125 -0.75 C 3.519531 -1.238281 3.140625 -2.132812 3.140625 -3.4375 C 3.140625 -3.582031 3.160156 -3.878906 3.203125 -4.328125 L 4.328125 -13.5625 C 4.328125 -13.6875 4.269531 -13.75 4.15625 -13.75 L 2.46875 -13.75 C 2.320312 -13.75 2.207031 -13.796875 2.125 -13.890625 C 2.050781 -13.992188 2.023438 -14.125 2.046875 -14.28125 L 2.3125 -16.328125 C 2.351562 -16.679688 2.539062 -16.859375 2.875 -16.859375 L 4.515625 -16.859375 C 4.648438 -16.859375 4.726562 -16.921875 4.75 -17.046875 L 5.21875 -20.75 C 5.238281 -20.90625 5.296875 -21.03125 5.390625 -21.125 C 5.492188 -21.226562 5.617188 -21.28125 5.765625 -21.28125 L 8.3125 -21.28125 C 8.488281 -21.28125 8.609375 -21.226562 8.671875 -21.125 C 8.742188 -21.03125 8.765625 -20.90625 8.734375 -20.75 L 8.3125 -17.046875 C 8.289062 -17.003906 8.296875 -16.960938 8.328125 -16.921875 C 8.359375 -16.878906 8.410156 -16.859375 8.484375 -16.859375 L 11.578125 -16.859375 C 11.753906 -16.859375 11.875 -16.804688 11.9375 -16.703125 C 12.007812 -16.609375 12.03125 -16.484375 12 -16.328125 Z M 11.78125 -14.28125 "/></g></g></g><g fill="#d9d9d9" fill-opacity="1"><g transform="translate(187.604123, 263.910696)"><g/></g></g><g fill="#d9d9d9" fill-opacity="1"><g transform="translate(194.001219, 263.910696)"><g><path d="M 15.765625 -12.078125 C 15.679688 -12.054688 15.628906 -12.015625 15.609375 -11.953125 C 15.597656 -11.898438 15.628906 -11.851562 15.703125 -11.8125 C 17.441406 -10.925781 18.3125 -9.472656 18.3125 -7.453125 C 18.3125 -7.234375 18.285156 -6.882812 18.234375 -6.40625 C 17.972656 -4.3125 17.101562 -2.71875 15.625 -1.625 C 14.15625 -0.539062 12.320312 0 10.125 0 L 2.203125 0 C 1.859375 0 1.707031 -0.175781 1.75 -0.53125 L 4.453125 -22.5625 C 4.515625 -22.914062 4.710938 -23.09375 5.046875 -23.09375 L 12.734375 -23.09375 C 14.816406 -23.09375 16.429688 -22.660156 17.578125 -21.796875 C 18.722656 -20.941406 19.296875 -19.644531 19.296875 -17.90625 C 19.296875 -17.6875 19.273438 -17.335938 19.234375 -16.859375 C 18.941406 -14.585938 17.785156 -12.992188 15.765625 -12.078125 Z M 8.015625 -19.796875 C 7.878906 -19.796875 7.8125 -19.726562 7.8125 -19.59375 L 7.0625 -13.5625 C 7.0625 -13.425781 7.113281 -13.359375 7.21875 -13.359375 L 11.515625 -13.359375 C 12.660156 -13.359375 13.585938 -13.640625 14.296875 -14.203125 C 15.015625 -14.765625 15.4375 -15.539062 15.5625 -16.53125 C 15.582031 -16.632812 15.59375 -16.785156 15.59375 -16.984375 C 15.59375 -17.867188 15.300781 -18.554688 14.71875 -19.046875 C 14.144531 -19.546875 13.335938 -19.796875 12.296875 -19.796875 Z M 10.5625 -3.328125 C 11.789062 -3.328125 12.769531 -3.691406 13.5 -4.421875 C 14.238281 -5.148438 14.609375 -6.117188 14.609375 -7.328125 C 14.609375 -8.222656 14.316406 -8.921875 13.734375 -9.421875 C 13.148438 -9.929688 12.34375 -10.1875 11.3125 -10.1875 L 6.859375 -10.1875 C 6.753906 -10.1875 6.675781 -10.125 6.625 -10 L 5.84375 -3.53125 C 5.84375 -3.394531 5.894531 -3.328125 6 -3.328125 Z M 10.5625 -3.328125 "/></g></g></g><g fill="#d9d9d9" fill-opacity="1"><g transform="translate(213.884948, 263.910696)"><g><path d="M 13 -16.328125 C 13.0625 -16.679688 13.257812 -16.859375 13.59375 -16.859375 L 16.234375 -16.859375 C 16.578125 -16.859375 16.726562 -16.679688 16.6875 -16.328125 L 14.75 -0.53125 C 14.726562 -0.375 14.664062 -0.242188 14.5625 -0.140625 C 14.46875 -0.046875 14.34375 0 14.1875 0 L 11.515625 0 C 11.359375 0 11.238281 -0.046875 11.15625 -0.140625 C 11.082031 -0.242188 11.054688 -0.375 11.078125 -0.53125 L 11.1875 -1.390625 C 11.1875 -1.472656 11.160156 -1.523438 11.109375 -1.546875 C 11.066406 -1.566406 11.015625 -1.535156 10.953125 -1.453125 C 9.960938 -0.328125 8.597656 0.234375 6.859375 0.234375 C 5.390625 0.234375 4.171875 -0.171875 3.203125 -0.984375 C 2.234375 -1.796875 1.75 -2.960938 1.75 -4.484375 C 1.75 -4.660156 1.769531 -4.945312 1.8125 -5.34375 L 3.171875 -16.328125 C 3.210938 -16.679688 3.398438 -16.859375 3.734375 -16.859375 L 6.4375 -16.859375 C 6.582031 -16.859375 6.691406 -16.804688 6.765625 -16.703125 C 6.847656 -16.609375 6.878906 -16.484375 6.859375 -16.328125 L 5.640625 -6.4375 C 5.617188 -6.300781 5.609375 -6.09375 5.609375 -5.8125 C 5.609375 -4.945312 5.832031 -4.265625 6.28125 -3.765625 C 6.726562 -3.273438 7.375 -3.03125 8.21875 -3.03125 C 9.15625 -3.03125 9.953125 -3.335938 10.609375 -3.953125 C 11.273438 -4.566406 11.675781 -5.394531 11.8125 -6.4375 Z M 13 -16.328125 "/></g></g></g><g fill="#d9d9d9" fill-opacity="1"><g transform="translate(231.196651, 263.910696)"><g><path d="M 5.765625 -18.96875 C 5.148438 -18.96875 4.644531 -19.15625 4.25 -19.53125 C 3.851562 -19.90625 3.65625 -20.390625 3.65625 -20.984375 C 3.65625 -21.773438 3.914062 -22.429688 4.4375 -22.953125 C 4.957031 -23.484375 5.597656 -23.75 6.359375 -23.75 C 7.003906 -23.75 7.519531 -23.5625 7.90625 -23.1875 C 8.289062 -22.8125 8.484375 -22.316406 8.484375 -21.703125 C 8.484375 -20.910156 8.222656 -20.253906 7.703125 -19.734375 C 7.179688 -19.222656 6.535156 -18.96875 5.765625 -18.96875 Z M 2.109375 0 C 1.753906 0 1.601562 -0.175781 1.65625 -0.53125 L 3.59375 -16.328125 C 3.65625 -16.679688 3.851562 -16.859375 4.1875 -16.859375 L 6.859375 -16.859375 C 7.210938 -16.859375 7.367188 -16.679688 7.328125 -16.328125 L 5.375 -0.53125 C 5.351562 -0.375 5.289062 -0.242188 5.1875 -0.140625 C 5.09375 -0.046875 4.96875 0 4.8125 0 Z M 2.109375 0 "/></g></g></g><g fill="#d9d9d9" fill-opacity="1"><g transform="translate(239.341391, 263.910696)"><g><path d="M 1.875 0 C 1.726562 0 1.613281 -0.046875 1.53125 -0.140625 C 1.457031 -0.242188 1.429688 -0.375 1.453125 -0.53125 L 4.15625 -22.5625 C 4.195312 -22.914062 4.382812 -23.09375 4.71875 -23.09375 L 7.421875 -23.09375 C 7.578125 -23.09375 7.691406 -23.039062 7.765625 -22.9375 C 7.847656 -22.84375 7.875 -22.71875 7.84375 -22.5625 L 5.140625 -0.53125 C 5.117188 -0.375 5.054688 -0.242188 4.953125 -0.140625 C 4.859375 -0.046875 4.734375 0 4.578125 0 Z M 1.875 0 "/></g></g></g><g fill="#d9d9d9" fill-opacity="1"><g transform="translate(247.123421, 263.910696)"><g><path d="M 14.015625 -22.5625 C 14.085938 -22.914062 14.285156 -23.09375 14.609375 -23.09375 L 17.28125 -23.09375 C 17.632812 -23.09375 17.789062 -22.914062 17.75 -22.5625 L 15.046875 -0.53125 C 15.023438 -0.375 14.960938 -0.242188 14.859375 -0.140625 C 14.765625 -0.046875 14.628906 0 14.453125 0 L 11.78125 0 C 11.425781 0 11.269531 -0.175781 11.3125 -0.53125 L 11.453125 -1.390625 C 11.453125 -1.472656 11.425781 -1.523438 11.375 -1.546875 C 11.332031 -1.566406 11.28125 -1.535156 11.21875 -1.453125 C 10.1875 -0.304688 8.898438 0.265625 7.359375 0.265625 C 5.859375 0.265625 4.628906 -0.144531 3.671875 -0.96875 C 2.722656 -1.789062 2.09375 -2.921875 1.78125 -4.359375 C 1.644531 -5.054688 1.578125 -5.78125 1.578125 -6.53125 C 1.578125 -7.238281 1.625 -7.890625 1.71875 -8.484375 C 1.894531 -10.015625 2.234375 -11.351562 2.734375 -12.5 C 3.398438 -13.945312 4.304688 -15.078125 5.453125 -15.890625 C 6.609375 -16.710938 7.957031 -17.125 9.5 -17.125 C 11 -17.125 12.144531 -16.582031 12.9375 -15.5 C 12.976562 -15.4375 13.023438 -15.410156 13.078125 -15.421875 C 13.128906 -15.429688 13.15625 -15.476562 13.15625 -15.5625 Z M 11.015625 -4.625 C 11.609375 -5.476562 12.015625 -6.75 12.234375 -8.4375 C 12.304688 -9.007812 12.34375 -9.53125 12.34375 -10 C 12.34375 -10.988281 12.195312 -11.78125 11.90625 -12.375 C 11.46875 -13.34375 10.734375 -13.828125 9.703125 -13.828125 C 8.597656 -13.828125 7.679688 -13.363281 6.953125 -12.4375 C 6.210938 -11.445312 5.742188 -10.101562 5.546875 -8.40625 C 5.472656 -7.882812 5.4375 -7.398438 5.4375 -6.953125 C 5.4375 -6.054688 5.570312 -5.289062 5.84375 -4.65625 C 6.28125 -3.59375 7.113281 -3.0625 8.34375 -3.0625 C 9.394531 -3.0625 10.285156 -3.582031 11.015625 -4.625 Z M 11.015625 -4.625 "/></g></g></g><g fill="#d9d9d9" fill-opacity="1"><g transform="translate(264.731905, 263.910696)"><g><path d="M 9.03125 -2.96875 C 9.800781 -2.988281 10.503906 -3.15625 11.140625 -3.46875 C 11.785156 -3.789062 12.316406 -4.226562 12.734375 -4.78125 C 12.835938 -4.957031 12.988281 -5.046875 13.1875 -5.046875 C 13.28125 -5.046875 13.367188 -5.015625 13.453125 -4.953125 L 14.84375 -3.6875 C 14.976562 -3.5625 15.046875 -3.429688 15.046875 -3.296875 C 15.046875 -3.191406 15 -3.082031 14.90625 -2.96875 C 14.15625 -1.957031 13.207031 -1.164062 12.0625 -0.59375 C 10.925781 -0.0195312 9.664062 0.265625 8.28125 0.265625 C 6.582031 0.265625 5.21875 -0.144531 4.1875 -0.96875 C 3.15625 -1.789062 2.472656 -2.941406 2.140625 -4.421875 C 1.984375 -5.097656 1.90625 -5.890625 1.90625 -6.796875 C 1.90625 -7.347656 1.941406 -7.921875 2.015625 -8.515625 C 2.191406 -10.003906 2.441406 -11.164062 2.765625 -12 C 3.359375 -13.5625 4.316406 -14.804688 5.640625 -15.734375 C 6.960938 -16.660156 8.46875 -17.125 10.15625 -17.125 C 12.3125 -17.125 13.878906 -16.484375 14.859375 -15.203125 C 15.835938 -13.929688 16.328125 -12.109375 16.328125 -9.734375 C 16.328125 -9.066406 16.296875 -8.375 16.234375 -7.65625 C 16.203125 -7.5 16.132812 -7.367188 16.03125 -7.265625 C 15.9375 -7.171875 15.816406 -7.125 15.671875 -7.125 L 5.734375 -7.125 C 5.628906 -7.125 5.554688 -7.054688 5.515625 -6.921875 L 5.46875 -6.234375 C 5.46875 -5.222656 5.78125 -4.425781 6.40625 -3.84375 C 7.039062 -3.257812 7.914062 -2.96875 9.03125 -2.96875 Z M 9.734375 -13.828125 C 8.921875 -13.828125 8.226562 -13.617188 7.65625 -13.203125 C 7.082031 -12.796875 6.648438 -12.234375 6.359375 -11.515625 C 6.234375 -11.242188 6.09375 -10.78125 5.9375 -10.125 C 5.914062 -9.988281 5.957031 -9.921875 6.0625 -9.921875 L 12.5 -9.921875 C 12.632812 -9.921875 12.710938 -9.988281 12.734375 -10.125 C 12.734375 -10.71875 12.722656 -11.113281 12.703125 -11.3125 C 12.585938 -12.082031 12.269531 -12.691406 11.75 -13.140625 C 11.238281 -13.597656 10.566406 -13.828125 9.734375 -13.828125 Z M 9.734375 -13.828125 "/></g></g></g><g fill="#d9d9d9" fill-opacity="1"><g transform="translate(282.076587, 263.910696)"><g><path d="M 11.046875 -17.046875 C 11.710938 -17.046875 12.265625 -16.925781 12.703125 -16.6875 C 12.941406 -16.550781 13.003906 -16.332031 12.890625 -16.03125 L 12.078125 -13.296875 C 12.003906 -13.117188 11.914062 -13.003906 11.8125 -12.953125 C 11.71875 -12.910156 11.582031 -12.914062 11.40625 -12.96875 C 11.164062 -13.050781 10.835938 -13.09375 10.421875 -13.09375 C 10.160156 -13.09375 9.953125 -13.082031 9.796875 -13.0625 C 8.890625 -13.019531 8.101562 -12.695312 7.4375 -12.09375 C 6.769531 -11.488281 6.367188 -10.703125 6.234375 -9.734375 L 5.109375 -0.53125 C 5.085938 -0.375 5.023438 -0.242188 4.921875 -0.140625 C 4.828125 -0.046875 4.703125 0 4.546875 0 L 1.84375 0 C 1.6875 0 1.570312 -0.046875 1.5 -0.140625 C 1.425781 -0.242188 1.398438 -0.375 1.421875 -0.53125 L 3.359375 -16.328125 C 3.410156 -16.679688 3.597656 -16.859375 3.921875 -16.859375 L 6.59375 -16.859375 C 6.945312 -16.859375 7.101562 -16.679688 7.0625 -16.328125 L 6.890625 -15.046875 C 6.890625 -14.953125 6.90625 -14.894531 6.9375 -14.875 C 6.976562 -14.851562 7.03125 -14.882812 7.09375 -14.96875 C 8.125 -16.351562 9.441406 -17.046875 11.046875 -17.046875 Z M 11.046875 -17.046875 "/></g></g></g></svg>